<?xml version="1.0" standalone="no"?>
<!DOCTYPE svg PUBLIC "-//W3C//DTD SVG 1.1//EN" "http://www.w3.org/Graphics/SVG/1.1/DTD/svg11.dtd" >
<svg xmlns="http://www.w3.org/2000/svg" width="100%" height="100%">
<metadata>
Created by FontXChange 20110222 at Thu Nov  7 10:14:59 2013
 By Chris Freitag
(c) Copyright 2010, Carter &#38; Cone Type, Inc. and The Font Bureau, Inc.
</metadata>
<defs>
<font id="LincolnMillerB-SemiboldItalic" horiz-adv-x="500" >
  <font-face 
    font-family="LincolnMillerB"
    font-weight="600"
    font-style="italic"
    font-stretch="normal"
    units-per-em="1000"
    panose-1="2 0 5 3 8 0 0 2 0 3"
    ascent="764"
    descent="-236"
    x-height="463"
    cap-height="683"
    bbox="-239 -240 1179.01 934"
    underline-thickness="20"
    underline-position="-113"
    slope="-12"
    stemh="23"
    stemv="99"
    unicode-range="U+0020-FB04"
  />
<missing-glyph horiz-adv-x="213" 
 />
    <glyph glyph-name="f_f" unicode="ff" horiz-adv-x="610" 
d="M495 591c-29 1 -66 15 -66 52c0 21 9 53 11 70c-5 15 -17 20 -28 20c-57 0 -102 -74 -141 -218l-17 -64h189l10 34c11 39 24 74 42 106zM722 743c79 0 121 -43 121 -89c0 -26 -22 -61 -60 -61c-30 0 -66 13 -66 51c0 27 32 58 35 74c-3 12 -26 16 -37 16
c-59 0 -103 -70 -144 -219l-18 -64h117l-6 -16h-115c-32 -123 -76 -302 -110 -411c-24 -77 -60 -152 -121 -202c-52 -44 -90 -58 -139 -58c-65 0 -96 39 -96 86c0 26 21 62 61 62c25 0 63 -15 63 -57c0 -24 -26 -46 -38 -63c-1 -11 9 -18 13 -18c56 0 94 75 139 222
c49 161 90 334 117 439h-188c-32 -123 -76 -300 -110 -409c-25 -78 -62 -152 -118 -202c-46 -41 -100 -60 -150 -60c-70 0 -102 39 -102 85c0 27 22 61 61 61c25 0 63 -15 63 -56c0 -27 -31 -49 -42 -65c1 -10 11 -17 17 -17c74 0 103 59 151 220c49 161 91 338 118 443h-94
l6 16h93l10 34c22 81 58 147 119 202c47 43 101 56 147 56c74 0 117 -41 121 -87c9 11 19 20 30 30c47 41 106 57 152 57z" />
    <glyph glyph-name="f_f_i" unicode="ffi" horiz-adv-x="868" 
d="M706 435h-157c-32 -123 -76 -302 -110 -411c-24 -77 -60 -152 -121 -202c-52 -44 -90 -58 -139 -58c-65 0 -96 39 -96 86c0 26 21 62 61 62c25 0 63 -15 63 -57c0 -24 -26 -46 -38 -63c-1 -11 9 -18 13 -18c56 0 94 75 139 222c49 161 90 334 117 439h-188
c-32 -123 -76 -300 -110 -409c-25 -78 -62 -152 -118 -202c-46 -41 -100 -60 -150 -60c-70 0 -102 39 -102 85c0 27 22 61 61 61c25 0 63 -15 63 -56c0 -27 -31 -49 -42 -65c1 -10 11 -17 17 -17c74 0 103 59 151 220c49 161 91 338 118 443h-94l6 16h93l10 34
c22 81 58 147 119 202c47 43 99 56 145 56c80 0 120 -45 123 -87c12 13 17 19 31 31c50 43 113 56 160 56c84 0 134 -47 134 -97c0 -25 -21 -65 -65 -65c-32 0 -69 14 -69 57c0 23 30 62 32 80c-5 12 -26 16 -43 16c-60 0 -109 -71 -150 -219l-18 -64h274
c-2 -29 -18 -92 -48 -171l-58 -152c-17 -44 -29 -76 -29 -91c0 -24 13 -29 29 -29c45 0 88 50 121 135l9 -3c-35 -89 -76 -151 -146 -151c-50 0 -111 22 -111 83c0 24 6 43 19 78l66 175c14 38 26 79 28 110zM495 591c-29 1 -66 15 -66 52c0 21 9 53 11 70
c-5 15 -17 20 -28 20c-57 0 -102 -74 -141 -218l-17 -64h189l10 34c11 39 24 74 42 106z" />
    <glyph glyph-name="f_f_l" unicode="ffl" horiz-adv-x="880" 
d="M495 591c-29 1 -66 15 -66 52c0 21 9 53 11 70c-5 15 -17 20 -28 20c-57 0 -101 -72 -140 -216l-18 -66h189l9 32c11 39 25 76 43 108zM662 435h-113c-32 -123 -76 -302 -110 -411c-24 -77 -60 -152 -121 -202c-52 -44 -90 -58 -139 -58c-65 0 -96 39 -96 86
c0 26 21 62 61 62c25 0 63 -15 63 -57c0 -24 -26 -46 -38 -63c-1 -11 9 -18 13 -18c56 0 94 75 139 222c49 161 90 334 117 439h-188c-32 -123 -76 -300 -110 -409c-25 -78 -62 -152 -118 -202c-46 -41 -100 -60 -150 -60c-70 0 -102 39 -102 85c0 27 22 61 61 61
c25 0 63 -15 63 -56c0 -27 -31 -49 -42 -65c1 -10 11 -17 17 -17c74 0 100 51 151 220c49 161 91 338 118 443h-94l6 16h93l10 34c22 81 58 147 119 202c47 43 101 56 147 56c74 0 118 -44 122 -90c8 8 20 21 33 32c45 39 104 58 150 58c37 0 70 -11 89 -27l119 24
l-196 -614c-16 -49 -26 -79 -26 -97c0 -16 10 -23 27 -23c46 0 86 52 120 137l10 -3c-37 -90 -75 -151 -149 -151c-52 0 -105 22 -105 83c0 24 9 48 18 78l138 436c-20 6 -38 22 -38 52c0 23 30 62 32 80c-5 14 -33 16 -45 16c-58 0 -108 -75 -148 -219l-18 -64h116z" />
    <glyph glyph-name="f_j" unicode="fj" horiz-adv-x="547" 
d="M271 515l-18 -64h278c-4 -25 -29 -119 -36 -144c-26 -101 -50 -174 -83 -285c-24 -78 -61 -151 -121 -201c-52 -44 -103 -57 -153 -57c-61 0 -94 34 -101 74c-5 -4 -12 -12 -17 -16c-52 -44 -105 -58 -148 -58c-70 0 -102 39 -102 85c0 27 22 61 61 61
c25 0 63 -15 63 -56c0 -27 -31 -49 -42 -65c1 -10 11 -17 17 -17c74 0 103 58 151 220c48 160 91 338 118 443h-93l5 16h93l10 34c23 80 61 147 125 202c50 43 106 56 154 56c84 0 134 -47 134 -97c0 -25 -21 -65 -65 -65c-32 0 -69 14 -69 57c0 23 30 62 32 80
c-5 12 -26 16 -43 16c-60 0 -109 -71 -150 -219zM91 -88h1c36 0 69 -18 69 -57c0 -21 -25 -45 -37 -62c0 -16 11 -20 17 -20c71 0 106 74 151 221c45 149 74 244 108 374c5 18 12 59 12 67h-162c-32 -123 -77 -302 -111 -411c-12 -39 -28 -77 -48 -112z" />
    <glyph glyph-name="f_i" unicode="fi" horiz-adv-x="569" 
d="M-128 -236c-70 0 -102 39 -102 85c0 27 22 61 61 61c25 0 63 -15 63 -56c0 -27 -31 -49 -42 -65c1 -10 11 -17 17 -17c74 0 103 58 151 220c48 160 91 338 118 443h-93l5 16h93l10 34c23 80 61 147 125 202c50 43 106 56 154 56c84 0 134 -47 134 -97
c0 -25 -21 -65 -65 -65c-32 0 -69 14 -69 57c0 23 30 62 32 80c-5 12 -26 16 -43 16c-60 0 -109 -71 -150 -219l-18 -64h274c-2 -29 -18 -92 -48 -171l-58 -152c-17 -44 -29 -76 -29 -91c0 -24 13 -29 29 -29c45 0 88 50 121 135l9 -3c-35 -89 -76 -151 -146 -151
c-50 0 -111 22 -111 83c0 24 6 43 19 78l66 175c14 38 26 79 28 110h-157c-32 -123 -76 -300 -110 -409c-25 -78 -62 -152 -118 -202c-46 -41 -100 -60 -150 -60z" />
    <glyph glyph-name="f_l" unicode="fl" horiz-adv-x="581" 
d="M464 718c-5 14 -33 16 -45 16c-58 0 -108 -75 -148 -219l-18 -64h116l-6 -16h-113c-32 -123 -76 -300 -110 -409c-25 -78 -62 -152 -118 -202c-46 -41 -100 -60 -150 -60c-70 0 -102 39 -102 85c0 27 22 61 61 61c25 0 63 -15 63 -56c0 -27 -31 -49 -42 -65
c1 -10 11 -17 17 -17c74 0 103 58 151 220c49 161 91 338 118 443h-93l5 16h93l10 35c22 74 57 142 120 197c48 43 105 60 152 60c37 0 70 -11 89 -27l119 24l-196 -614c-16 -49 -26 -79 -26 -97c0 -16 10 -23 27 -23c46 0 86 52 120 137l10 -3c-37 -90 -75 -151 -149 -151
c-52 0 -105 22 -105 83c0 24 9 48 18 78l138 436c-20 6 -38 22 -38 52c0 23 30 62 32 80z" />
    <glyph glyph-name="f_t" unicode="ft" horiz-adv-x="613" 
d="M423 435h-173c-32 -123 -76 -300 -110 -409c-25 -78 -62 -152 -118 -202c-46 -41 -100 -60 -150 -60c-70 0 -102 39 -102 85c0 27 22 61 61 61c25 0 63 -15 63 -56c0 -27 -31 -49 -42 -65c1 -10 11 -17 17 -17c74 0 103 59 151 220c49 161 91 338 118 443h-93l5 16h93
l10 34c21 77 55 142 109 193c45 44 102 65 160 65c79 0 121 -43 121 -89c0 -16 -8 -36 -24 -48h66l-47 -155h113l-5 -16h-112c-27 -91 -87 -293 -96 -328c-10 -33 -16 -62 -16 -72c0 -21 10 -28 26 -28c44 0 90 50 124 138l10 -3c-37 -93 -77 -153 -151 -153
c-52 0 -110 23 -110 83c0 19 6 42 9 53c12 45 86 287 93 310zM253 451h176l41 142c-26 3 -53 18 -53 51c0 27 32 58 35 74c-3 12 -26 16 -37 16c-59 0 -103 -70 -144 -219z" />
    <glyph glyph-name=".notdef" horiz-adv-x="213" 
 />
    <glyph glyph-name="exclam" unicode="!" horiz-adv-x="337" 
d="M155 215c29 167 32 355 45 407c12 43 41 76 83 76c39 0 60 -26 58 -66c-2 -60 -109 -233 -178 -418zM121 -9c-40 0 -70 30 -70 69s30 70 70 70c39 0 70 -31 70 -70s-31 -69 -70 -69z" />
    <glyph glyph-name="quotedbl" unicode="&#x22;" horiz-adv-x="394" 
d="M127 470c1 85 -8 149 -8 188c1 53 25 79 63 79c39 0 58 -25 57 -61s-61 -111 -105 -206h-7zM325 470c2 85 -9 149 -7 188c1 53 24 79 61 79c40 0 59 -25 58 -61s-60 -111 -105 -206h-7z" />
    <glyph glyph-name="ampersand" unicode="&#x26;" horiz-adv-x="829" 
d="M372 -17c-167 0 -297 94 -296 224c0 82 56 121 110 150c-38 27 -71 66 -71 125c0 69 62 137 157 137c89 0 141 -56 159 -127l-5 -3c-22 40 -63 62 -129 62c-82 0 -121 -51 -121 -115c-1 -29 8 -55 22 -73c26 11 69 30 103 30c44 0 70 -20 70 -48c0 -23 -17 -43 -50 -43
c-55 0 -96 27 -124 47c-19 -11 -38 -36 -39 -74c-4 -105 103 -196 297 -198c189 -2 283 105 284 219c0 93 -67 141 -151 141c-66 0 -114 -40 -115 -98c0 -57 41 -88 86 -88c25 0 43 5 55 15c-43 7 -75 25 -75 59c0 42 33 53 52 53c32 0 66 -17 66 -61c0 -41 -30 -78 -88 -78
c-65 0 -127 44 -127 116c0 115 93 152 170 152c26 0 84 -5 106 -5c59 0 95 40 95 86c0 43 -30 78 -77 78c-28 0 -42 -16 -42 -25c21 -8 52 -19 52 -48c0 -34 -23 -48 -49 -48c-30 0 -62 17 -61 62c0 37 34 70 95 70c67 0 102 -44 102 -101c0 -98 -59 -143 -170 -143
c56 -22 99 -72 99 -149c-1 -127 -104 -301 -390 -301z" />
    <glyph glyph-name="quotesingle" unicode="'" horiz-adv-x="184" 
d="M125 470c1 91 -6 155 -6 188c1 53 25 79 63 79c39 0 58 -25 57 -61c-1 -34 -50 -99 -102 -206h-12z" />
    <glyph glyph-name="parenleft" unicode="(" horiz-adv-x="353" 
d="M202 -153c-104 91 -172 196 -167 350c5 217 125 390 360 542l15 -18c-217 -147 -326 -327 -330 -517c-5 -148 54 -255 143 -341z" />
    <glyph glyph-name="parenright" unicode=")" horiz-adv-x="353" 
d="M-36 -152l-15 19c216 147 325 327 330 517c5 148 -54 255 -143 341l20 16c105 -91 172 -197 167 -351c-4 -216 -125 -389 -359 -542z" />
    <glyph glyph-name="comma" unicode="," horiz-adv-x="242" 
d="M7 -155l-3 8c56 30 113 93 121 149h-29c-51 0 -72 24 -71 60c0 40 31 73 76 73c51 0 72 -37 71 -89c-2 -96 -91 -166 -165 -201z" />
    <glyph glyph-name="hyphen" unicode="-" horiz-adv-x="376" 
d="M44 211l24 85h285l-24 -85h-285z" />
    <glyph glyph-name="period" unicode="." horiz-adv-x="242" 
d="M99 -10c-41 0 -74 32 -74 72s33 73 74 73s73 -33 73 -73s-32 -72 -73 -72z" />
    <glyph glyph-name="zero" unicode="0" horiz-adv-x="606" 
d="M259 -14c-141 0 -222 97 -222 229c0 213 167 405 341 405c126 0 215 -79 216 -230c1 -212 -160 -404 -335 -404zM251 -4c112 0 214 292 215 479c0 70 -19 135 -80 135c-111 0 -220 -273 -221 -485c-1 -83 30 -129 86 -129z" />
    <glyph glyph-name="one" unicode="1" horiz-adv-x="422" 
d="M-11 0l2 6c18 1 55 4 74 10c20 5 39 23 45 45l133 481c-9 -2 -21 -3 -33 -3c-33 0 -69 12 -106 55l4 4c25 -15 63 -23 101 -23c75 0 148 25 180 44h9c-23 -43 -40 -99 -53 -147l-112 -406c-8 -27 0 -40 16 -48c13 -7 54 -11 71 -12l-2 -6h-329z" />
    <glyph glyph-name="two" unicode="2" horiz-adv-x="560" 
d="M-10 0l11 44c125 78 205 134 278 196c111 94 155 186 155 272c0 59 -28 97 -83 97c-98 0 -177 -114 -179 -188c-2 -47 17 -72 53 -72c35 0 61 21 91 48l5 -6c-46 -50 -91 -77 -145 -77c-67 0 -106 36 -106 92c0 102 136 214 297 214c117 0 186 -50 186 -136
c0 -158 -148 -242 -396 -354l-46 -30h269c58 0 88 35 132 100l8 -4l-100 -196h-430z" />
    <glyph glyph-name="three" unicode="3" horiz-adv-x="544" 
d="M185 -26c-92 0 -195 37 -194 128c2 57 43 109 99 109c34 0 53 -20 52 -44c0 -73 -84 -45 -85 -102c-1 -51 47 -79 105 -79c110 0 217 128 222 248c2 48 -16 80 -57 80c-39 0 -77 -29 -115 -55l-9 16c174 89 238 147 241 237c2 59 -24 97 -79 97c-70 0 -147 -73 -149 -147
c-1 -33 18 -49 40 -49c20 0 47 9 69 28l5 -6c-39 -36 -79 -63 -130 -63c-54 0 -86 28 -85 74c1 92 134 174 274 174c109 0 173 -51 172 -124c-1 -86 -83 -142 -222 -159l-22 -13c6 1 35 1 41 1c83 0 146 -33 146 -114c-1 -144 -148 -237 -319 -237z" />
    <glyph glyph-name="four" unicode="4" horiz-adv-x="546" 
d="M199 -177l64 183c-49 8 -95 47 -175 47c-10 0 -19 -1 -30 -2c-28 -25 -62 -56 -83 -56c-23 0 -40 9 -40 31c0 24 26 33 55 35c21 1 43 1 64 1c94 84 173 304 247 558h133c-74 -228 -216 -456 -368 -560c31 5 60 11 101 11c42 0 76 -7 114 -12l84 236h114l-88 -240
c45 3 96 20 126 57l6 -5c-36 -52 -83 -96 -150 -105l-63 -179h-111z" />
    <glyph glyph-name="five" unicode="5" horiz-adv-x="531" 
d="M169 -14c-84 0 -180 42 -179 118c1 58 49 86 85 86c35 0 52 -18 52 -46c-1 -43 -34 -55 -44 -89c-3 -38 34 -60 82 -60c106 0 182 124 187 251c4 70 -31 115 -97 115s-128 -28 -158 -82l-11 3l149 335h8c11 -17 70 -39 148 -39c68 0 142 17 189 50l5 -5
c-82 -112 -187 -146 -317 -146c-26 0 -73 3 -80 4l-68 -149c40 27 91 43 155 43c126 0 205 -61 203 -160c-2 -138 -139 -229 -309 -229z" />
    <glyph glyph-name="six" unicode="6" horiz-adv-x="563" 
d="M236 -14c-119 0 -203 76 -200 220c6 246 233 494 434 494c93 0 134 -52 134 -103c0 -42 -20 -77 -62 -77c-41 0 -58 34 -58 86c-1 52 -11 80 -51 80c-86 0 -190 -159 -252 -348l5 -3c46 53 95 90 166 90c104 0 167 -70 164 -174c-3 -125 -111 -265 -280 -265zM227 -5
c99 0 158 155 164 275c4 79 -25 128 -83 128c-76 0 -160 -101 -166 -247c-5 -93 24 -156 85 -156z" />
    <glyph glyph-name="seven" unicode="7" horiz-adv-x="506" 
d="M138 -119c-40 0 -62 23 -60 60c1 49 57 139 154 262c78 96 164 189 260 293h-263c-71 0 -117 -44 -167 -125l-8 3l138 277h7l-4 -56h394l-3 -10c-82 -89 -134 -154 -197 -249c-82 -119 -127 -227 -163 -349c-18 -66 -37 -106 -88 -106z" />
    <glyph glyph-name="eight" unicode="8" horiz-adv-x="557" 
d="M236 -16c-129 0 -213 62 -212 149c1 84 85 145 180 170c-56 32 -91 73 -90 137c1 99 105 187 248 187c104 0 178 -56 178 -133c0 -76 -68 -127 -146 -152c66 -30 114 -77 113 -148c-2 -139 -130 -210 -271 -210zM241 -5c75 0 152 61 154 143c2 49 -17 85 -85 119
c-26 14 -62 27 -96 40c-67 -29 -111 -100 -113 -173c-2 -68 40 -129 140 -129zM382 348c54 21 91 92 91 153c1 63 -39 115 -115 115c-81 0 -132 -66 -134 -130c-1 -46 15 -71 70 -100c23 -12 54 -25 88 -38z" />
    <glyph glyph-name="nine" unicode="9" horiz-adv-x="563" 
d="M110 -103c-91 0 -145 50 -144 110c1 43 24 74 63 74c42 0 59 -27 60 -87c1 -49 2 -84 49 -84c116 0 206 179 268 363l-3 2c-43 -50 -96 -94 -171 -94c-104 0 -168 67 -165 174c2 132 113 265 281 265c114 0 203 -75 199 -218c-6 -262 -208 -505 -437 -505zM275 208
c88 0 165 127 167 257c2 78 -23 145 -88 145c-95 0 -160 -152 -162 -283c-2 -66 23 -119 83 -119z" />
    <glyph glyph-name="colon" unicode=":" horiz-adv-x="313" 
d="M114 -10c-40 0 -73 31 -73 72c0 40 33 73 73 73c41 0 74 -33 74 -73c0 -41 -33 -72 -74 -72zM204 311c-40 0 -73 31 -73 72c0 40 33 73 73 73c41 0 73 -33 73 -73c0 -41 -32 -72 -73 -72z" />
    <glyph glyph-name="semicolon" unicode=";" horiz-adv-x="313" 
d="M204 311c-40 0 -73 31 -73 72c0 40 33 73 73 73c41 0 74 -33 74 -73c0 -41 -33 -72 -74 -72zM24 -155l-3 8c57 30 114 93 121 149h-28c-52 0 -73 24 -72 60c0 40 32 73 76 73c51 0 73 -37 71 -89c-3 -96 -91 -166 -165 -201z" />
    <glyph glyph-name="question" unicode="?" horiz-adv-x="445" 
d="M214 167c-56 0 -100 39 -100 98c0 74 52 122 143 165c90 42 129 76 128 147c-2 56 -39 107 -110 107c-73 0 -125 -50 -125 -105c0 -47 34 -80 76 -80c9 0 23 2 29 5v4c-28 0 -55 17 -55 46s20 52 51 52c35 0 58 -19 58 -54c0 -40 -35 -65 -80 -65c-51 0 -91 35 -91 91
c0 68 61 121 156 121c118 0 187 -74 187 -154c0 -82 -53 -135 -142 -174c-103 -45 -162 -86 -162 -147c0 -29 23 -43 44 -43c38 0 68 38 76 84l8 -3c-10 -58 -45 -95 -91 -95zM151 -10c-39 0 -70 30 -70 69c0 40 31 70 70 70c40 0 70 -30 70 -70c0 -39 -30 -69 -70 -69z" />
    <glyph glyph-name="A" unicode="A" horiz-adv-x="671" 
d="M-105 0l2 5c14 1 41 8 63 18c30 15 62 47 93 86c132 160 325 405 463 585h24c2 -13 8 -616 8 -620c1 -28 2 -46 22 -56c15 -8 39 -12 58 -13l-2 -5h-319l2 5c31 2 69 7 85 15c24 10 31 32 30 51l-1 187h-231c-40 -50 -91 -119 -106 -139c-19 -26 -39 -54 -39 -70
c0 -31 70 -42 102 -44l-1 -5h-253zM203 273h220l-1 274c-24 -28 -147 -184 -219 -274z" />
    <glyph glyph-name="B" unicode="B" horiz-adv-x="662" 
d="M-44 0l2 6c18 1 58 5 73 9c26 9 37 28 43 49l153 549c5 20 6 39 -16 50c-14 6 -52 13 -68 14l2 6h322c115 0 188 -42 186 -130c-2 -108 -101 -163 -231 -184v-6c118 -8 188 -55 186 -144c-3 -134 -132 -219 -332 -219h-320zM279 10c118 0 191 104 196 201
c3 94 -43 145 -122 145c-17 0 -54 -1 -72 -2l-79 -285c-11 -40 17 -59 77 -59zM284 366h44c125 0 189 83 191 179c2 79 -29 128 -91 128c-19 0 -42 -1 -59 -2z" />
    <glyph glyph-name="C" unicode="C" horiz-adv-x="635" 
d="M315 -15c-165 0 -271 105 -271 255c0 258 191 457 417 457c68 0 128 -29 162 -57l49 53h8l-49 -248h-9c-9 132 -53 241 -172 241c-78 0 -152 -66 -203 -164c-39 -75 -64 -169 -66 -264c-2 -137 50 -244 173 -244c99 0 172 66 237 165l9 -5c-58 -96 -136 -189 -285 -189z
" />
    <glyph glyph-name="D" unicode="D" horiz-adv-x="753" 
d="M-44 0l2 6c18 1 58 5 73 9c26 9 37 26 43 49l153 549c5 20 6 39 -16 50c-14 6 -52 13 -68 14l2 6h306c136 0 288 -59 286 -264c-1 -100 -35 -203 -110 -278c-89 -92 -224 -141 -367 -141h-304zM266 9c111 0 201 61 260 152c47 72 72 160 75 251c7 174 -51 262 -177 262
c-5 0 -40 -1 -54 -2l-164 -587c-15 -56 4 -76 60 -76z" />
    <glyph glyph-name="E" unicode="E" horiz-adv-x="641" 
d="M-48 0l2 6c15 0 61 4 78 10c25 9 37 28 43 51l151 543c5 21 8 42 -15 53c-16 6 -53 13 -71 14l2 6h536l-46 -165h-8c-7 73 -37 145 -81 151c-21 3 -56 4 -88 4h-85l-87 -312h79c47 0 78 20 96 36c19 17 45 57 60 94h8l-78 -280h-6c4 29 4 79 -9 106c-9 18 -28 34 -75 34
h-78l-69 -250c-24 -86 -4 -91 95 -91c66 0 124 4 153 27c46 37 106 117 133 157h8l-65 -194h-583z" />
    <glyph glyph-name="F" unicode="F" horiz-adv-x="609" 
d="M-52 0l2 5c16 0 66 6 83 12c25 9 36 26 42 49l151 546c5 21 8 40 -16 51c-16 6 -55 13 -74 14l3 6h565l-45 -164h-7c-3 64 -26 143 -78 150c-23 3 -50 4 -82 4h-122l-87 -314h92c51 0 78 19 94 31c19 14 52 62 66 99h9l-80 -283h-8c5 29 1 89 -8 108c-8 16 -29 34 -77 34
h-91l-77 -277c-7 -20 -6 -41 16 -51c16 -6 55 -13 74 -14l-2 -6h-343z" />
    <glyph glyph-name="G" unicode="G" horiz-adv-x="721" 
d="M316 -15c-143 0 -272 76 -272 259c0 238 186 453 434 453c69 0 127 -23 170 -59l53 55h8l-56 -242h-7c-9 130 -61 236 -182 236c-71 0 -140 -50 -193 -130c-54 -82 -89 -194 -90 -315c-1 -148 42 -246 147 -246c77 0 118 57 145 153c0 0 20 72 20 73c6 25 5 48 -18 58
c-22 10 -73 15 -91 16l2 6h345l-1 -6c-19 -3 -48 -6 -68 -14c-28 -11 -38 -29 -44 -52l-66 -248l-6 -2l-44 63c-70 -34 -120 -58 -186 -58z" />
    <glyph glyph-name="H" unicode="H" horiz-adv-x="811" 
d="M-44 0l2 6c18 1 58 5 73 9c26 9 37 28 43 49l153 549c5 20 6 39 -16 50c-14 6 -52 13 -68 14l2 6h328l-1 -6c-19 -1 -55 -6 -74 -11c-26 -8 -38 -29 -44 -50l-69 -250h293l69 247c6 20 8 39 -16 50c-15 7 -47 13 -65 14l1 6h328l-1 -6c-19 -1 -58 -6 -76 -11
c-27 -8 -37 -28 -43 -50l-154 -549c-6 -22 -5 -37 17 -49c12 -5 50 -11 69 -12l-2 -6h-328l1 6c18 1 59 5 73 9c27 9 37 27 43 49l81 288h-294l-80 -286c-6 -20 -4 -38 18 -48c10 -4 46 -11 66 -12l-2 -6h-327z" />
    <glyph glyph-name="I" unicode="I" horiz-adv-x="397" 
d="M-39 0l1 6c18 1 59 5 74 9c26 9 37 28 43 49l153 549c5 20 6 39 -17 50c-14 6 -51 13 -67 14l2 6h330l-2 -6c-19 -1 -56 -6 -75 -11c-26 -8 -38 -29 -44 -50l-153 -550c-6 -21 -4 -38 18 -48c10 -4 49 -11 69 -12l-1 -6h-331z" />
    <glyph glyph-name="J" unicode="J" horiz-adv-x="563" 
d="M86 -173c-80 0 -131 42 -131 101c0 36 31 65 67 65c47 0 69 -26 69 -62c0 -21 -20 -51 -32 -68c0 -17 21 -27 27 -27c74 0 114 49 161 218c24 87 51 218 63 272l-131 3l3 13l132 5c25 76 62 133 148 213c-27 -7 -104 -21 -124 -21c-109 0 -132 119 -201 121
c-31 1 -52 -22 -52 -42c0 -6 6 -35 12 -44c56 1 86 -24 86 -61c0 -27 -20 -55 -58 -55c-39 0 -67 39 -67 104c0 71 60 150 146 150c130 0 120 -122 233 -143h34c49 65 85 109 113 109c24 0 40 -11 40 -35c0 -58 -82 -67 -143 -80c-26 -62 -30 -149 -41 -211l129 3l-8 -26
l-125 1c-15 -59 -34 -152 -67 -260c-51 -171 -179 -243 -283 -243z" />
    <glyph glyph-name="K" unicode="K" horiz-adv-x="736" 
d="M-44 0l2 6c18 1 58 5 73 9c26 9 37 28 43 49l153 549c5 20 6 39 -16 50c-14 6 -61 13 -77 14l2 6h337l-1 -6c-19 -1 -55 -6 -74 -11c-26 -8 -38 -29 -44 -50l-73 -266h14c158 106 329 244 342 292c8 29 -66 34 -88 35l1 6h271l-1 -6c-27 -1 -92 -2 -152 -52
c-106 -89 -195 -164 -273 -218c60 -91 140 -239 181 -320c15 -27 32 -53 61 -67c17 -9 41 -13 58 -14l-2 -6h-340l2 6c60 5 94 11 95 40c1 30 -82 193 -150 294h-22l-77 -274c-6 -20 -4 -38 18 -48c10 -4 46 -11 66 -12l-2 -6h-327z" />
    <glyph glyph-name="L" unicode="L" horiz-adv-x="626" 
d="M-48 0l2 6c15 0 61 4 78 10c25 9 37 29 43 52l152 544c5 21 6 40 -18 51c-16 7 -51 13 -69 14l2 6h335l-2 -6c-19 -1 -58 -6 -77 -11c-26 -8 -38 -29 -44 -50l-143 -514c-24 -86 -7 -92 99 -92c62 0 118 5 144 25c40 32 106 113 138 160h9l-67 -195h-582z" />
    <glyph glyph-name="M" unicode="M" horiz-adv-x="923" 
d="M-65 0l1 5c22 1 78 11 98 23c27 17 48 62 70 142l108 397c11 41 7 66 -9 82c-19 19 -55 27 -81 28l2 6h218l98 -518l280 432c26 41 42 75 46 86h235l-1 -6c-19 -1 -59 -6 -78 -11c-26 -8 -37 -26 -44 -50l-142 -548c-7 -21 -3 -38 18 -49c11 -5 53 -12 72 -13l-1 -6h-331
l1 6c17 1 57 4 71 9c26 9 39 28 44 49l142 555l-397 -608h-16c-2 41 -12 94 -20 139l-83 454l-115 -431c-11 -36 -31 -115 -5 -141c16 -16 83 -26 101 -27l-1 -5h-281z" />
    <glyph glyph-name="N" unicode="N" horiz-adv-x="716" 
d="M-61 0l2 6c23 1 74 10 93 23c27 17 49 58 70 137l104 388c8 29 13 69 -11 94c-19 19 -53 28 -93 29l2 6h220l230 -506l90 340c9 32 31 112 2 135c-16 14 -70 24 -92 25l1 6h269l-1 -6c-18 -1 -73 -9 -95 -21c-33 -19 -52 -71 -69 -135l-141 -527h-18l-269 602l-113 -429
c-10 -34 -28 -112 -4 -137c16 -16 78 -23 96 -24l-2 -6h-271z" />
    <glyph glyph-name="O" unicode="O" horiz-adv-x="722" 
d="M307 -16c-150 0 -259 112 -259 274c0 94 32 187 85 262c75 106 190 178 316 178c148 0 263 -105 263 -269c0 -98 -34 -195 -91 -274c-73 -101 -185 -171 -314 -171zM307 -6c79 0 144 61 193 154c47 90 80 220 82 331c2 119 -29 209 -127 209c-66 0 -117 -39 -162 -102
c-65 -93 -113 -248 -116 -383c-2 -122 34 -209 130 -209z" />
    <glyph glyph-name="P" unicode="P" horiz-adv-x="616" 
d="M-44 0l2 6c18 1 58 5 73 9c26 9 37 28 43 49l152 549c6 20 7 39 -16 50c-18 7 -51 13 -67 14l2 6h305c132 0 203 -53 202 -150c-3 -140 -142 -219 -333 -219h-49l-68 -247c-6 -20 -3 -37 17 -47c11 -5 52 -13 71 -14l-1 -6h-333zM274 325h46c122 0 197 81 199 203
c3 94 -36 144 -109 144h-40z" />
    <glyph glyph-name="Q" unicode="Q" horiz-adv-x="678" 
d="M602 -239c-114 0 -177 47 -227 103c-43 49 -79 104 -127 155c-42 -18 -94 -34 -137 -34c-72 0 -129 20 -129 64c0 33 53 67 126 67c48 0 112 -22 179 -56c86 44 243 192 252 437c4 107 -45 190 -131 190c-154 0 -237 -169 -242 -311c-2 -68 26 -143 94 -143
c70 0 131 53 134 161c2 65 -19 113 -60 127c12 -29 17 -55 17 -69c0 -39 -26 -58 -57 -58c-30 0 -50 19 -48 58c1 37 38 74 94 74c75 0 111 -59 109 -119c-4 -115 -112 -186 -195 -186c-109 0 -183 75 -183 186c0 152 148 291 330 291c168 0 267 -101 267 -235
c0 -221 -206 -348 -364 -418c47 -27 89 -65 142 -109c75 -64 153 -128 224 -128c17 0 44 2 64 8v8c-48 -2 -78 31 -78 65c0 37 28 70 70 70c38 0 61 -28 61 -68c0 -57 -88 -130 -185 -130zM124 -2c31 0 81 18 114 35c-33 33 -76 74 -124 74c-25 0 -49 -37 -53 -55
c10 -34 36 -54 63 -54z" />
    <glyph glyph-name="R" unicode="R" horiz-adv-x="723" 
d="M544 -11c-78 0 -119 38 -117 125c1 36 1 65 1 96c0 94 -6 131 -119 131h-31c-13 -49 -71 -254 -77 -273c-5 -21 -4 -38 18 -48c11 -5 52 -13 71 -14l-1 -6h-333l2 6c18 1 58 5 73 9c26 9 37 28 43 49l152 549c6 20 7 39 -16 50c-14 6 -51 13 -67 14l2 6h300
c146 0 223 -49 222 -136c-2 -106 -92 -172 -238 -195l-1 -7c87 -10 126 -53 128 -128c1 -53 0 -85 1 -121c1 -45 13 -68 39 -68c36 0 68 47 90 128l10 -2c-29 -104 -60 -165 -152 -165zM280 352h47c116 0 202 63 205 180c2 92 -40 140 -113 140h-49z" />
    <glyph glyph-name="S" unicode="S" horiz-adv-x="552" 
d="M228 -13c-78 0 -165 29 -194 52l-52 -49h-9l55 236h8c21 -136 80 -229 198 -229c104 0 161 72 162 152c1 78 -50 109 -133 155c-92 51 -152 97 -149 193c3 109 108 200 254 200c62 0 138 -26 165 -52l50 48h9l-55 -228h-7c-14 124 -62 221 -168 221
c-76 0 -139 -58 -140 -136c-2 -72 34 -102 114 -145c110 -61 174 -104 173 -199c-3 -129 -122 -219 -281 -219z" />
    <glyph glyph-name="T" unicode="T" horiz-adv-x="650" 
d="M75 0l1 6c19 1 74 6 88 11c25 9 37 28 43 50l168 606h-39c-22 0 -61 -1 -84 -4c-45 -6 -138 -119 -162 -162h-9l50 176h620l-50 -176h-8c-1 70 -27 156 -71 162c-23 3 -55 4 -81 4h-40l-165 -603c-6 -20 -4 -40 17 -50c11 -5 69 -13 88 -14l-2 -6h-364z" />
    <glyph glyph-name="U" unicode="U" horiz-adv-x="770" 
d="M336 -16c-151 0 -235 60 -235 161c0 27 4 57 14 91l103 375c6 21 6 40 -16 51c-14 6 -51 14 -67 15l2 6h332l-2 -6c-19 -1 -58 -6 -77 -11c-26 -8 -38 -30 -44 -51l-100 -360c-11 -42 -18 -81 -18 -113c0 -70 48 -122 142 -122c125 0 205 71 245 215l80 283
c10 32 31 112 3 134c-17 14 -73 24 -95 25l2 6h274l-2 -6c-18 -1 -75 -7 -97 -20c-33 -19 -51 -70 -69 -134l-83 -293c-47 -162 -126 -246 -292 -246z" />
    <glyph glyph-name="V" unicode="V" horiz-adv-x="643" 
d="M202 -10h-29l-13 619c-1 29 -3 46 -23 56c-15 7 -37 11 -57 12l2 6h313l-2 -6c-36 -2 -68 -7 -84 -14c-23 -10 -30 -30 -30 -49l9 -490l329 439c20 27 38 55 39 70c1 30 -65 42 -107 44l2 6h252l-1 -6c-15 -1 -42 -7 -64 -17c-30 -15 -59 -43 -92 -86z" />
    <glyph glyph-name="W" unicode="W" horiz-adv-x="976" 
d="M171 -8c0 13 -11 613 -11 618c0 26 -2 44 -22 54c-15 9 -37 12 -56 13l1 6h312l-2 -6c-32 -1 -64 -7 -80 -15c-23 -9 -30 -30 -30 -49c0 -2 8 -449 9 -460l259 381c2 19 2 58 1 79c-1 23 -5 42 -23 51c-15 9 -37 12 -56 13l2 6h313l-1 -6c-32 -2 -66 -7 -82 -15
c-23 -9 -30 -30 -30 -49c0 -2 8 -449 9 -460c5 8 242 357 244 361c33 50 56 91 57 120c1 30 -59 40 -108 43l2 6h251l-2 -6c-19 -1 -38 -5 -60 -15c-30 -15 -56 -51 -80 -86l-397 -584h-28c0 10 -9 514 -10 521l-355 -521h-27z" />
    <glyph glyph-name="X" unicode="X" horiz-adv-x="735" 
d="M-66 0l2 6c20 2 40 6 61 14c44 17 77 47 102 69c51 46 154 146 238 229c-28 79 -71 194 -102 276c-14 37 -28 58 -56 71c-16 7 -38 11 -62 12l2 6h371l-2 -6c-60 -3 -125 -13 -126 -49c0 -12 6 -38 18 -74c13 -38 35 -99 57 -155c39 38 113 112 163 168
c30 35 52 62 53 73c0 24 -35 34 -98 37l2 6h262l-1 -6c-19 -1 -42 -5 -63 -13c-43 -17 -74 -45 -101 -69c-71 -64 -161 -159 -212 -210c30 -87 77 -214 108 -296c11 -29 23 -50 40 -61c19 -17 37 -19 74 -22l-3 -6h-370l2 6c69 4 128 15 128 51c1 10 -5 33 -16 68
c-14 46 -38 112 -63 180c-71 -69 -140 -138 -184 -185c-35 -38 -57 -65 -57 -74c-1 -28 36 -36 97 -40l-2 -6h-262z" />
    <glyph glyph-name="Y" unicode="Y" horiz-adv-x="677" 
d="M117 0l2 6c17 1 56 4 71 9c26 9 37 32 41 49l64 261c9 35 10 94 10 127c0 98 -34 173 -115 173c-51 0 -99 -29 -125 -100l-8 3c35 103 104 167 191 167c112 0 168 -87 171 -195c1 -35 -2 -86 -9 -132h9c27 72 57 134 91 185c58 90 125 143 190 143c49 0 77 -34 77 -69
c0 -52 -33 -77 -68 -77c-42 0 -60 36 -60 61c0 22 10 43 26 57l-4 5c-46 -9 -94 -45 -152 -132c-30 -44 -75 -132 -96 -216l-65 -257c-5 -21 -2 -39 20 -49c10 -5 62 -12 81 -13l-2 -6h-340z" />
    <glyph glyph-name="Z" unicode="Z" horiz-adv-x="606" 
d="M-67 0l2 8l598 665h-142c-36 0 -67 -1 -88 -6c-62 -13 -151 -115 -188 -170h-8l68 186h517l-2 -8l-598 -665h157c65 0 134 7 161 26c54 39 128 126 158 171h8l-74 -207h-569z" />
    <glyph glyph-name="grave" unicode="`" 
d="M407 506l-124 97c-27 21 -46 41 -46 66s21 46 47 46c33 0 45 -21 65 -64l63 -140z" />
    <glyph glyph-name="a" unicode="a" horiz-adv-x="540" 
d="M145 -13c-62 0 -128 40 -128 156c0 74 35 158 89 222c51 60 119 103 190 103c48 0 79 -41 84 -79h3l24 73h112l-115 -333c-17 -48 -25 -79 -26 -96c0 -20 9 -28 24 -28c44 0 89 53 122 138l10 -3c-36 -89 -75 -152 -149 -152c-56 0 -100 30 -90 106l-4 1
c-36 -66 -90 -108 -146 -108zM176 16c38 -1 78 32 116 100l82 251c-8 53 -34 82 -70 82c-37 0 -76 -45 -107 -107c-39 -77 -66 -180 -64 -258c0 -47 16 -67 43 -68z" />
    <glyph glyph-name="b" unicode="b" 
d="M198 -14c-95 0 -163 71 -163 139c0 32 5 55 15 85l130 411c11 33 15 54 15 67c0 22 -18 29 -40 32c-25 3 -38 3 -62 4v8l241 10l-120 -367l2 -1c36 47 81 94 138 94c64 0 132 -37 132 -156c0 -109 -89 -326 -288 -326zM194 -5c39 0 79 47 110 111c40 80 67 188 67 263
c0 42 -18 67 -46 67c-46 0 -94 -53 -122 -97l-77 -243c0 -66 25 -101 68 -101z" />
    <glyph glyph-name="c" unicode="c" horiz-adv-x="411" 
d="M181 -14c-79 0 -164 41 -164 160c0 131 117 322 284 322c60 0 110 -37 110 -94c0 -43 -24 -71 -58 -71c-33 0 -58 18 -58 52c0 29 30 54 72 63c-4 20 -31 41 -63 41c-42 0 -81 -49 -110 -114c-34 -76 -56 -173 -56 -241c0 -58 21 -95 64 -95c73 0 135 63 176 139l9 -4
c-63 -118 -139 -158 -206 -158z" />
    <glyph glyph-name="d" unicode="d" horiz-adv-x="555" 
d="M145 -13c-57 0 -128 35 -128 156c0 88 49 187 118 253c46 44 102 72 159 72c52 0 76 -38 84 -79h3l69 232c10 31 15 54 15 67c0 22 -18 29 -41 32c-25 3 -49 3 -73 4v8l250 10l-193 -613c-14 -45 -22 -71 -22 -93c0 -21 9 -29 24 -29c46 0 86 51 119 136l10 -3
c-36 -89 -72 -152 -146 -152c-59 0 -102 32 -93 106l-3 1c-40 -61 -93 -108 -152 -108zM178 16c39 0 84 39 118 97l77 254c-7 49 -32 81 -68 81c-38 0 -76 -45 -107 -107c-38 -77 -66 -180 -65 -255c0 -50 16 -70 45 -70z" />
    <glyph glyph-name="e" unicode="e" horiz-adv-x="406" 
d="M181 -14c-82 0 -164 43 -164 162s113 320 293 320c56 0 101 -28 101 -76c0 -96 -99 -155 -261 -173c-8 -37 -13 -81 -13 -115c0 -55 20 -92 64 -92c75 0 136 64 176 138l9 -4c-61 -116 -133 -160 -205 -160zM151 227c121 16 164 104 167 168c3 44 -11 63 -32 63
c-50 0 -108 -116 -135 -231z" />
    <glyph glyph-name="f" unicode="f" horiz-adv-x="310" 
d="M-128 -236c-70 0 -102 39 -102 85c0 27 22 61 61 61c25 0 63 -15 63 -56c0 -27 -31 -49 -42 -65c1 -10 11 -17 17 -17c74 0 103 59 151 220c49 161 91 338 118 443h-93l5 16h93l10 34c21 77 55 142 109 193c45 44 102 65 160 65c79 0 121 -43 121 -89
c0 -26 -22 -61 -60 -61c-30 0 -66 13 -66 51c0 27 32 58 35 74c-3 12 -26 16 -37 16c-59 0 -103 -70 -144 -219l-18 -64h116l-6 -16h-113c-32 -123 -76 -300 -110 -409c-25 -78 -62 -152 -118 -202c-46 -41 -100 -60 -150 -60z" />
    <glyph glyph-name="g" unicode="g" horiz-adv-x="480" 
d="M132 -239c-124 0 -193 51 -193 112c0 66 65 116 178 128v5c-57 10 -97 34 -97 78c0 59 76 83 112 94v4c-50 21 -83 62 -83 109c0 98 86 177 210 177c52 0 93 -15 115 -27c29 24 66 52 98 51c32 0 54 -28 54 -57c0 -30 -24 -55 -50 -55c-28 0 -47 31 -55 76
c-15 -2 -31 -13 -43 -22v-7c19 -19 34 -51 34 -85c0 -102 -88 -171 -197 -171h-79c-20 -6 -42 -23 -42 -43c-1 -28 22 -37 115 -45c30 -3 78 -7 98 -10c70 -11 112 -56 112 -126c-1 -87 -83 -186 -287 -186zM157 -230c112 0 161 80 161 152c0 27 -11 50 -38 56
c-49 10 -110 15 -157 17c-43 -11 -79 -53 -79 -118c0 -59 38 -107 113 -107zM213 178c60 0 92 135 92 196c0 47 -13 86 -52 86c-61 0 -94 -130 -94 -183c0 -58 15 -99 54 -99z" />
    <glyph glyph-name="h" unicode="h" horiz-adv-x="555" 
d="M9 0l196 621c11 33 14 54 14 67c0 22 -17 29 -39 32c-26 3 -40 3 -64 4v8l241 10l-125 -380l3 -1c41 58 90 107 150 107c69 0 113 -54 113 -110c0 -16 -9 -48 -20 -76l-57 -152c-19 -50 -29 -83 -29 -98c0 -18 13 -24 29 -24c43 0 84 50 118 135l10 -3
c-36 -89 -74 -151 -151 -151c-53 0 -107 23 -107 84c0 24 8 44 20 77l63 167c12 31 26 66 26 85c0 25 -20 36 -41 36c-54 0 -99 -54 -139 -119l-99 -319h-112z" />
    <glyph glyph-name="i" unicode="i" horiz-adv-x="330" 
d="M163 -11c-54 0 -106 23 -106 84c0 24 5 42 18 77l70 177c18 48 27 79 27 98c0 17 -8 24 -22 24c-45 0 -85 -51 -118 -136l-10 3c36 88 73 152 146 152c56 0 102 -32 102 -91c0 -22 -16 -66 -27 -95l-59 -152c-20 -51 -30 -82 -30 -98c0 -17 11 -24 27 -24
c45 0 87 50 120 135l9 -3c-35 -89 -74 -151 -147 -151zM262 570c-40 0 -60 30 -60 66c0 45 31 83 81 83c33 0 54 -33 54 -66c0 -44 -27 -83 -75 -83z" />
    <glyph glyph-name="j" unicode="j" horiz-adv-x="300" 
d="M-92 -239c-57 0 -96 36 -96 81c0 30 20 63 60 63c33 0 61 -20 61 -55c0 -27 -27 -46 -39 -62c1 -13 12 -19 20 -19c68 0 98 68 144 219c45 149 67 237 101 367c8 30 12 53 12 68c0 16 -7 26 -21 26c-45 0 -83 -52 -116 -137l-10 4c35 88 72 152 145 152
c57 0 104 -31 104 -90c0 -9 -7 -43 -14 -68c-26 -101 -47 -180 -81 -291c-21 -68 -51 -125 -95 -170c-51 -58 -114 -88 -175 -88zM257 571c-39 0 -59 30 -59 65c0 46 30 84 80 84c33 0 55 -33 55 -66c0 -45 -28 -83 -76 -83z" />
    <glyph glyph-name="k" unicode="k" horiz-adv-x="538" 
d="M8 0l197 621c11 34 14 54 14 67c0 22 -17 29 -39 32c-26 3 -40 3 -64 4v8l241 10l-151 -470c9 -1 23 -1 36 -1c107 0 85 197 217 197c58 0 80 -31 80 -68s-27 -74 -67 -74c-26 0 -52 18 -52 40c0 62 61 47 66 73c-5 14 -16 20 -34 20c-74 0 -64 -162 -184 -192
c60 -9 117 -32 117 -93c0 -49 -23 -105 -23 -137c0 -21 7 -29 26 -29c49 0 88 52 119 135l11 -3c-36 -89 -73 -151 -150 -151c-64 0 -109 25 -109 84c0 41 26 109 26 138c0 34 -13 51 -49 51c-8 0 -22 -1 -32 -2l-84 -260h-112z" />
    <glyph glyph-name="l" unicode="l" horiz-adv-x="290" 
d="M129 -11c-53 0 -106 22 -106 83c0 24 9 48 18 78l149 471c11 34 14 54 14 67c0 22 -18 29 -40 32c-25 3 -40 3 -64 4v8l242 10l-196 -616c-16 -49 -26 -78 -26 -96c0 -16 11 -23 28 -23c44 0 86 51 119 136l10 -3c-36 -90 -75 -151 -148 -151z" />
    <glyph glyph-name="m" unicode="m" horiz-adv-x="847" 
d="M37 0l111 325c16 48 28 84 28 102c0 16 -9 22 -22 22c-46 0 -85 -51 -118 -136l-10 3c37 88 72 152 148 152c47 0 100 -31 90 -109l3 -1c39 59 91 110 150 110c72 0 114 -48 109 -109h3c35 55 89 109 152 109c59 0 109 -46 109 -109c0 -19 -10 -53 -20 -77l-57 -152
c-19 -50 -29 -83 -29 -98c0 -18 13 -24 29 -24c42 0 84 50 118 135l10 -3c-36 -89 -75 -151 -149 -151c-54 0 -108 23 -108 84c0 24 6 43 19 77l59 157c16 43 28 71 28 93c0 27 -20 36 -41 36c-42 0 -84 -38 -120 -97l-111 -339h-115l109 327c7 20 20 53 20 72
c0 23 -18 36 -41 36c-56 0 -98 -52 -129 -105l-110 -330h-115z" />
    <glyph glyph-name="n" unicode="n" horiz-adv-x="591" 
d="M433 -11c-57 0 -106 26 -106 84c0 24 7 44 19 77l62 163c16 44 25 70 25 86c0 27 -20 36 -41 36c-52 0 -92 -43 -128 -104l-109 -331h-116l110 325c16 48 28 84 28 102c0 16 -9 22 -22 22c-45 0 -84 -51 -117 -136l-10 3c36 90 73 152 147 152c49 0 101 -31 91 -109l3 -1
c46 70 99 110 151 110c65 0 113 -49 113 -108c0 -18 -8 -49 -20 -78l-57 -152c-19 -50 -28 -83 -28 -98c0 -18 12 -24 28 -24c43 0 84 50 118 135l10 -3c-37 -90 -74 -151 -151 -151z" />
    <glyph glyph-name="o" unicode="o" horiz-adv-x="486" 
d="M179 -14c-80 0 -158 59 -158 179c0 70 35 155 95 217c49 51 115 86 191 86c86 0 158 -60 158 -181c0 -64 -29 -139 -79 -199c-50 -59 -121 -102 -207 -102zM185 -5c42 0 80 47 110 111c35 77 58 180 59 257c0 77 -27 96 -51 96c-48 0 -93 -61 -125 -141
c-28 -70 -45 -154 -46 -225c-1 -74 25 -98 53 -98z" />
    <glyph glyph-name="p" unicode="p" horiz-adv-x="568" 
d="M-104 -234l2 7c46 1 59 8 71 22c19 21 30 60 38 84l140 446c16 50 27 87 27 104c-1 14 -9 21 -22 21c-44 0 -84 -52 -117 -137l-10 3c36 88 74 152 145 152c57 0 97 -40 88 -113l3 -1c41 60 91 114 156 114c60 0 126 -34 126 -158c0 -69 -29 -146 -75 -208
c-50 -67 -122 -115 -202 -115c-52 0 -80 41 -88 75h-3l-56 -185c-10 -31 -14 -54 -14 -67c0 -22 18 -29 41 -32c25 -3 35 -3 59 -4l-2 -8h-307zM256 8c43 0 84 54 116 125c34 75 56 170 56 237c0 48 -18 65 -44 65c-45 0 -85 -43 -121 -96l-81 -258c10 -44 37 -73 74 -73z
" />
    <glyph glyph-name="q" unicode="q" horiz-adv-x="514" 
d="M102 -234l3 7c45 1 68 8 80 22c19 21 30 57 38 84c0 0 52 163 63 198l-3 1c-32 -47 -81 -91 -136 -91c-61 0 -130 34 -130 157c0 71 38 172 105 242c46 48 105 82 175 82c47 0 80 -39 87 -75h4l49 69h83l-186 -585c-10 -32 -14 -54 -14 -67c0 -22 18 -29 41 -32
c25 -3 25 -3 49 -4l-2 -8h-306zM176 17c40 0 86 39 119 98l85 258c-9 47 -39 75 -76 75c-40 0 -81 -50 -112 -117c-35 -76 -59 -173 -59 -245c0 -49 15 -69 43 -69z" />
    <glyph glyph-name="r" unicode="r" horiz-adv-x="444" 
d="M43 0l105 327c14 44 26 81 26 98s-9 24 -21 24c-45 0 -85 -55 -117 -137l-10 3c37 89 72 153 146 153c49 0 99 -35 90 -113l3 -1c27 49 73 114 126 114c43 0 71 -33 71 -71c0 -36 -20 -75 -62 -75c-41 0 -58 23 -57 52c1 26 28 46 34 60c1 5 0 9 -4 11
c-35 0 -85 -66 -113 -120l-102 -325h-115z" />
    <glyph glyph-name="s" unicode="s" horiz-adv-x="403" 
d="M159 -14c-106 0 -154 58 -154 113c0 43 31 79 69 79c45 0 57 -32 57 -51c0 -21 -12 -50 -53 -50c-20 0 -42 6 -42 -9c0 -29 46 -71 116 -71c60 0 102 36 102 89c0 51 -44 81 -87 114c-42 33 -84 70 -84 131c0 73 70 137 176 137c91 0 126 -60 126 -99
c0 -46 -21 -74 -57 -74c-28 0 -54 14 -54 48c0 47 74 53 77 63c-1 13 -26 51 -90 51c-38 0 -80 -29 -80 -87c0 -44 38 -73 80 -106c46 -37 89 -73 89 -136c0 -74 -69 -142 -191 -142z" />
    <glyph glyph-name="t" unicode="t" horiz-adv-x="323" 
d="M141 -11c-52 0 -110 23 -110 83c0 19 6 42 9 53c12 45 86 287 93 310h-94l6 16h94l45 155h111l-47 -155h113l-5 -16h-112c-27 -91 -87 -293 -96 -328c-10 -33 -16 -62 -16 -72c0 -21 10 -28 26 -28c44 0 90 50 124 138l10 -3c-37 -93 -77 -153 -151 -153z" />
    <glyph glyph-name="u" unicode="u" horiz-adv-x="581" 
d="M177 -13c-67 0 -114 49 -114 112c0 14 9 46 20 74l58 152c19 47 29 81 29 98s-8 26 -22 26c-44 0 -84 -52 -117 -137l-9 4c35 88 71 151 146 151c55 0 100 -29 100 -85c0 -24 -6 -45 -17 -77l-66 -167c-15 -41 -23 -67 -23 -86c0 -21 13 -38 41 -38c49 0 94 45 127 101
l107 338h116l-108 -326c-12 -37 -23 -72 -23 -92c0 -16 11 -26 25 -26c45 0 85 49 118 134l10 -3c-36 -89 -74 -151 -146 -151c-55 0 -105 29 -99 102l-3 1c-38 -60 -90 -105 -150 -105z" />
    <glyph glyph-name="v" unicode="v" horiz-adv-x="503" 
d="M209 -14c-77 0 -141 46 -141 134c0 99 73 193 197 293l-4 5c-56 -37 -98 -58 -135 -58c-29 0 -53 8 -65 15l-33 -90l-8 3l61 178h5c18 -36 63 -51 95 -51c49 0 91 11 136 51l7 -7c-65 -62 -140 -213 -140 -338c0 -77 35 -102 77 -102c49 0 100 34 137 87
c34 47 58 106 58 167c0 68 -86 69 -86 132c0 32 24 56 63 56c46 0 56 -52 56 -95c0 -99 -30 -193 -79 -263c-50 -71 -121 -117 -201 -117z" />
    <glyph glyph-name="w" unicode="w" horiz-adv-x="712" 
d="M196 -13c-72 0 -129 46 -129 136c0 99 86 199 193 291l-4 5c-51 -37 -96 -58 -132 -58c-29 0 -51 8 -63 15l-32 -87l-8 3l59 174h6c18 -36 65 -51 96 -51c47 0 79 14 124 54l6 -6c-66 -80 -130 -237 -130 -360c0 -60 24 -86 49 -86c24 0 48 13 79 43
c-13 27 -21 60 -21 87c0 117 117 318 181 318c23 0 40 -29 40 -71c0 -68 -51 -189 -118 -279c15 -69 51 -97 85 -97c51 0 101 40 137 98c29 46 47 93 47 154c0 76 -88 70 -88 137c0 30 23 55 58 55c54 0 63 -55 63 -97c0 -93 -25 -181 -66 -249c-49 -80 -120 -132 -198 -132
c-53 0 -91 28 -114 66c-38 -36 -75 -63 -120 -63zM390 129c50 74 99 180 99 245c0 27 -13 41 -30 41c-20 0 -36 -14 -46 -36c-16 -30 -28 -113 -28 -197c0 -18 1 -37 5 -53z" />
    <glyph glyph-name="x" unicode="x" horiz-adv-x="518" 
d="M64 -12c-59 0 -82 30 -82 68c0 62 56 114 88 141l5 -5c-19 -42 -27 -89 -27 -128c0 -40 11 -59 27 -59c68 0 111 142 139 230c21 67 35 123 35 157c0 39 -16 52 -38 52c-50 0 -99 -53 -131 -137l-10 4c36 88 82 152 159 152c56 0 114 -20 112 -127h4
c20 53 64 127 121 127c36 0 73 -18 73 -73s-44 -96 -74 -124l-5 5c13 28 28 91 28 135c0 25 -8 44 -28 44c-61 0 -109 -125 -134 -219c-14 -58 -27 -110 -27 -153c0 -52 22 -69 51 -69c49 0 87 47 122 136l10 -3c-35 -90 -71 -154 -150 -154c-73 0 -138 25 -134 139h-5
c-24 -57 -61 -139 -129 -139z" />
    <glyph glyph-name="y" unicode="y" horiz-adv-x="543" 
d="M78 -239c-93 0 -119 52 -119 89c0 57 41 83 78 83c36 0 55 -27 55 -50c0 -35 -18 -49 -36 -55c-20 -8 -48 -2 -55 -17c2 -26 35 -40 73 -40c128 0 194 113 257 321l-3 1c-37 -57 -90 -106 -151 -106c-69 0 -114 52 -114 112c0 15 9 47 20 75l58 151c18 45 29 81 29 98
s-8 26 -22 26c-44 0 -84 -52 -117 -137l-9 4c35 88 71 151 146 151c56 0 100 -29 100 -85c0 -23 -7 -48 -17 -77l-64 -162c-12 -31 -25 -69 -25 -89c0 -23 12 -40 43 -40c46 0 91 43 130 109l104 330h113l-108 -346c-82 -262 -215 -346 -366 -346z" />
    <glyph glyph-name="z" unicode="z" horiz-adv-x="431" 
d="M16 -13c-17 0 -37 11 -37 40c0 22 18 41 51 67c67 55 203 154 308 227l-2 4c-53 -2 -139 31 -184 31c-29 0 -46 -10 -46 -32s28 -45 59 -55l-3 -6c-56 18 -101 46 -101 91c0 61 43 112 95 112c94 0 139 -131 187 -131c36 0 36 43 36 77s16 55 42 55c21 0 39 -9 39 -36
c0 -28 -15 -47 -50 -75c-49 -39 -206 -150 -303 -223l1 -5c57 -1 115 -33 178 -34c45 -1 67 16 69 37c1 24 -21 43 -47 48l3 7c60 -13 81 -49 81 -86c0 -57 -40 -112 -97 -112c-98 0 -144 131 -197 132c-31 -8 -35 -51 -35 -86c0 -30 -14 -47 -47 -47z" />
    <glyph glyph-name="bullet" unicode="&#x2022;" horiz-adv-x="385" 
d="M93 325c0 68 53 122 121 122s122 -54 122 -122s-54 -121 -122 -121s-121 53 -121 121z" />
    <glyph glyph-name="registered" unicode="&#xae;" horiz-adv-x="480" 
d="M387 420c-24 0 -40 17 -44 51c-3 24 -8 54 -44 54h-16v-79c0 -7 2 -12 9 -15c4 -2 13 -3 19 -3v-5h-94v5c5 0 18 2 20 3c6 3 9 8 9 15v161c0 7 -2 13 -9 15c-6 2 -15 4 -20 4v4h106c30 0 66 -12 66 -46c0 -33 -35 -46 -60 -52v-3c17 -3 42 -12 48 -34c4 -16 7 -33 11 -46
c3 -11 9 -13 14 -13c9 0 16 6 16 26h6c0 -29 -10 -42 -37 -42zM310 335c-102 0 -182 80 -182 184s80 184 182 184s183 -80 183 -184s-81 -184 -183 -184zM310 350c94 0 165 74 165 169c0 96 -71 170 -165 170c-93 0 -165 -74 -165 -170c0 -95 72 -169 165 -169zM283 531h16
c27 0 49 13 49 47c0 33 -19 47 -42 47h-23v-94z" />
    <glyph glyph-name="copyright" unicode="&#xa9;" horiz-adv-x="945" 
d="M476 13c-143 0 -237 90 -237 234c0 139 103 243 251 243c43 0 103 -16 126 -32l23 39h6l4 -181h-6c-25 74 -66 164 -163 164c-73 0 -142 -80 -142 -228c0 -121 62 -208 160 -208c80 0 129 57 158 116l9 -5c-31 -70 -88 -142 -189 -142zM469 -181
c-237 0 -434 194 -434 432c0 236 196 430 434 430c235 0 432 -194 432 -430c0 -238 -197 -432 -432 -432zM469 -154c219 0 400 181 400 405c0 222 -181 403 -400 403c-221 0 -402 -181 -402 -403c0 -224 182 -405 402 -405z" />
    <glyph glyph-name="trademark" unicode="&#x2122;" horiz-adv-x="683" 
d="M394 432v4c6 1 28 3 37 9c8 6 12 22 12 49v143c0 16 -3 25 -11 30c-9 6 -26 11 -35 11v5h101l75 -188l60 155c4 11 7 24 8 33h103v-5c-6 0 -24 -4 -31 -6c-7 -3 -10 -9 -10 -17v-195c0 -9 3 -14 10 -17c5 -3 25 -6 32 -7v-4h-143v4c6 1 32 3 37 6c7 4 10 9 10 18v191h-6
l-84 -216h-16l-84 213h-6v-151c0 -28 5 -43 12 -49s33 -11 39 -12v-4h-110zM179 432v4c7 1 27 2 33 5c8 3 12 8 12 16v218h-15c-8 0 -25 0 -34 -1c-16 -2 -36 -51 -40 -66h-5v75h241v-75h-5c-5 15 -23 64 -39 66c-9 1 -21 1 -31 1h-17v-216c0 -8 4 -15 11 -17
c5 -2 25 -5 32 -6v-4h-143z" />
    <glyph glyph-name="acute" unicode="&#xb4;" 
d="M413 605l-176 -97l-4 5l117 149c26 34 48 52 79 52c25 0 42 -20 42 -39c0 -31 -19 -49 -58 -70z" />
    <glyph glyph-name="dieresis" unicode="&#xa8;" 
d="M246 547c-33 0 -62 28 -62 62c0 35 29 64 62 64c34 0 62 -29 62 -62c0 -35 -28 -64 -62 -64zM440 547c-33 0 -61 28 -61 62c0 35 28 64 61 64c35 0 62 -29 62 -62c0 -35 -28 -64 -62 -64z" />
    <glyph glyph-name="endash" unicode="&#x2013;" horiz-adv-x="544" 
d="M45 220l18 67h443l-19 -68z" />
    <glyph glyph-name="emdash" unicode="&#x2014;" horiz-adv-x="884" 
d="M45 220l19 67h784l-19 -68z" />
    <glyph glyph-name="quotedblleft" unicode="&#x201c;" horiz-adv-x="390" 
d="M462 731l4 -9c-58 -30 -109 -78 -123 -133h33c52 0 70 -29 69 -58c0 -36 -30 -74 -80 -74c-42 0 -71 33 -69 88c2 70 65 138 166 186zM274 731l3 -9c-57 -30 -108 -78 -123 -133h34c51 0 69 -29 68 -58c0 -36 -30 -74 -80 -74c-42 0 -71 33 -69 88c2 70 65 138 167 186z
" />
    <glyph glyph-name="quotedblright" unicode="&#x201d;" horiz-adv-x="390" 
d="M129 468l-4 9c58 29 109 77 123 133h-33c-52 0 -70 28 -69 58c0 35 30 73 80 73c42 0 71 -32 69 -87c-2 -71 -65 -139 -166 -186zM317 468l-3 9c57 29 108 77 123 133h-34c-51 0 -69 28 -68 58c0 35 30 73 80 73c42 0 71 -32 69 -87c-2 -71 -65 -139 -167 -186z" />
    <glyph glyph-name="quoteleft" unicode="&#x2018;" horiz-adv-x="201" 
d="M274 731l3 -9c-57 -30 -108 -78 -123 -133h34c51 0 69 -29 68 -58c0 -36 -30 -74 -80 -74c-42 0 -71 33 -69 88c2 70 65 138 167 186z" />
    <glyph glyph-name="quoteright" unicode="&#x2019;" horiz-adv-x="201" 
d="M129 468l-4 9c58 29 109 77 123 133h-33c-52 0 -70 28 -69 58c0 35 30 73 80 73c42 0 71 -32 69 -87c-2 -71 -65 -139 -166 -186z" />
    <glyph glyph-name="periodcentered" unicode="&#xb7;" horiz-adv-x="275" 
d="M150 195c-43 0 -77 33 -77 77c0 42 34 76 77 76s77 -34 77 -76c0 -44 -34 -77 -77 -77z" />
    <glyph glyph-name="circumflex" unicode="&#x2c6;" 
d="M475 510l-115 121l-183 -121l-6 5c52 58 115 132 151 174c17 21 24 23 56 23c27 0 32 -3 39 -21c14 -37 45 -126 64 -178z" />
    <glyph glyph-name="tilde" unicode="&#x2dc;" 
d="M149 531l-9 4c23 40 83 139 143 139c65 0 92 -65 142 -65c37 0 77 36 101 71l7 -3c-26 -49 -81 -142 -141 -142c-63 0 -95 65 -144 65c-36 0 -75 -34 -99 -69z" />
    <glyph glyph-name="macron" unicode="&#xaf;" 
d="M178 562l19 75h330l-19 -75h-330z" />
    <glyph glyph-name="breve" unicode="&#x2d8;" 
d="M328 517c-58 0 -107 61 -108 184l9 3c12 -58 51 -102 116 -102c63 0 132 45 174 102l8 -3c-62 -123 -138 -184 -199 -184z" />
    <glyph glyph-name="dotaccent" unicode="&#x2d9;" 
d="M342 537c-37 0 -68 31 -68 68c0 38 31 70 68 70c41 0 71 -31 71 -66c0 -38 -31 -72 -71 -72z" />
    <glyph glyph-name="ring" unicode="&#x2da;" 
d="M343 509c-62 0 -115 36 -114 94c2 63 65 108 130 108c60 0 114 -38 112 -95c-2 -63 -62 -107 -128 -107zM340 519c46 0 67 62 69 106c1 39 -11 75 -48 75c-44 0 -68 -59 -69 -106c-2 -38 11 -75 48 -75z" />
    <glyph glyph-name="cedilla" unicode="&#xb8;" 
d="M40 -228l3 10c83 2 149 26 149 72c1 25 -18 33 -68 33l39 120h13l-18 -56c77 0 121 -25 120 -72c-1 -88 -122 -109 -238 -107z" />
    <glyph glyph-name="hungarumlaut" unicode="&#x2dd;" 
d="M320 616c-39 -22 -118 -65 -172 -99l-4 6c40 45 90 110 120 147c27 36 48 53 79 53c22 0 34 -18 34 -35c0 -32 -20 -50 -57 -72zM502 616c-38 -22 -120 -66 -173 -100l-3 6c40 46 91 110 120 148c27 37 48 53 80 53c22 0 34 -18 33 -35c-1 -32 -19 -50 -57 -72z" />
    <glyph glyph-name="ogonek" unicode="&#x2db;" 
d="M202 -227c-107 0 -172 20 -170 72c1 55 70 103 187 155h12c-76 -56 -110 -109 -112 -143c-2 -38 24 -69 86 -74z" />
    <glyph glyph-name="caron" unicode="&#x2c7;" 
d="M228 721l114 -120l184 120l5 -4c-50 -58 -114 -132 -150 -175c-18 -20 -24 -23 -55 -23c-29 0 -33 3 -40 21c-15 38 -46 127 -64 178z" />
    <glyph glyph-name="ellipsis" unicode="&#x2026;" horiz-adv-x="758" 
d="M102 -10c-41 0 -74 32 -74 72s33 73 74 73s73 -33 73 -73s-32 -72 -73 -72zM358 -10c-41 0 -74 32 -74 72s33 73 74 73c40 0 73 -33 73 -73s-33 -72 -73 -72zM613 -10c-40 0 -73 32 -73 72s33 73 73 73c41 0 73 -33 73 -73s-32 -72 -73 -72z" />
    <glyph glyph-name="Eth" unicode="&#xd0;" horiz-adv-x="753" 
d="M-44 0l2 6c18 1 58 5 73 9c26 9 37 26 43 49l79 284h-91l6 20h91l68 245c5 20 6 39 -16 50c-17 7 -52 13 -68 14l2 6h306c136 0 288 -59 286 -264c-1 -134 -57 -239 -144 -310c-88 -72 -207 -109 -333 -109h-304zM426 368l-7 -20h-140l-73 -263c-15 -56 4 -76 60 -76
c103 0 187 52 245 132c54 73 86 170 90 271c6 174 -51 262 -177 262c-5 0 -40 -1 -54 -2l-85 -304h141z" />
    <glyph glyph-name="eth" unicode="&#xf0;" horiz-adv-x="486" 
d="M300 469c34 0 64 -17 77 -45h2c6 67 -5 140 -34 208l-113 -79l-10 16l115 79c-17 32 -40 67 -64 92l5 6c31 -19 70 -48 96 -73l96 66l10 -16l-94 -64c66 -76 98 -168 95 -264c-2 -125 -44 -239 -110 -314c-52 -59 -120 -95 -194 -95c-76 0 -156 56 -156 179
c0 69 32 149 86 210c49 55 115 94 193 94zM185 -5c44 0 84 52 114 122c33 76 54 173 55 246c1 71 -25 96 -51 96c-46 0 -88 -55 -119 -128s-51 -164 -52 -238s25 -98 53 -98z" />
    <glyph glyph-name="Lslash" unicode="&#x141;" horiz-adv-x="626" 
d="M455 424l4 -20s-131 -43 -180 -60l-68 -242c-6 -21 -10 -41 -10 -53c0 -34 26 -39 109 -39c62 0 118 5 144 25c40 32 106 113 138 160h9l-67 -195h-582l2 6c15 0 61 4 78 10c25 9 37 29 43 52l67 238c-33 -10 -101 -33 -101 -33l-5 20s95 30 112 36l79 283
c5 21 6 40 -18 51c-16 7 -51 13 -69 14l2 6h335l-2 -6c-19 -1 -58 -6 -77 -11c-26 -8 -38 -29 -44 -50l-69 -248z" />
    <glyph glyph-name="lslash" unicode="&#x142;" horiz-adv-x="290" 
d="M311 401l3 -18l-97 -33l-71 -224c-16 -49 -26 -78 -26 -96c0 -16 11 -23 28 -23c44 0 86 51 119 136l10 -3c-36 -90 -75 -151 -148 -151c-53 0 -106 22 -106 83c0 24 9 48 18 78l51 163l-76 -26l-4 18l87 29l91 287c11 34 14 54 14 67c0 22 -18 29 -40 32
c-25 3 -40 3 -64 4v8l242 10l-119 -371z" />
    <glyph glyph-name="Scaron" unicode="&#x160;" horiz-adv-x="552" 
d="M279 934l114 -120l184 120l5 -4c-50 -58 -114 -132 -150 -175c-18 -20 -24 -23 -55 -23c-29 0 -33 3 -40 21c-15 38 -46 127 -64 178zM228 -13c-78 0 -165 29 -194 52l-52 -49h-9l55 236h8c21 -136 80 -229 198 -229c104 0 161 72 162 152c1 78 -50 109 -133 155
c-92 51 -152 97 -149 193c3 109 108 200 254 200c62 0 138 -26 165 -52l50 48h9l-55 -228h-7c-14 124 -62 221 -168 221c-76 0 -139 -58 -140 -136c-2 -72 34 -102 114 -145c110 -61 174 -104 173 -199c-3 -129 -122 -219 -281 -219z" />
    <glyph glyph-name="scaron" unicode="&#x161;" horiz-adv-x="403" 
d="M170 721l114 -120l184 120l5 -4c-50 -58 -114 -132 -150 -175c-18 -20 -24 -23 -55 -23c-29 0 -33 3 -40 21c-15 38 -46 127 -64 178zM159 -14c-106 0 -154 58 -154 113c0 43 31 79 69 79c45 0 57 -32 57 -51c0 -21 -12 -50 -53 -50c-20 0 -42 6 -42 -9
c0 -29 46 -71 116 -71c60 0 102 36 102 89c0 51 -44 81 -87 114c-42 33 -84 70 -84 131c0 73 70 137 176 137c91 0 126 -60 126 -99c0 -46 -21 -74 -57 -74c-28 0 -54 14 -54 48c0 47 74 53 77 63c-1 13 -26 51 -90 51c-38 0 -80 -29 -80 -87c0 -44 38 -73 80 -106
c46 -37 89 -73 89 -136c0 -74 -69 -142 -191 -142z" />
    <glyph glyph-name="Yacute" unicode="&#xdd;" horiz-adv-x="679" 
d="M117 0l2 6c17 1 56 4 71 9c26 9 37 32 41 49l64 261c9 35 10 94 10 127c0 98 -34 173 -115 173c-51 0 -99 -29 -125 -100l-8 3c35 103 104 167 191 167c112 0 168 -87 171 -195c1 -35 -2 -86 -9 -132h9c27 72 57 134 91 185c58 90 125 143 190 143c49 0 77 -34 77 -69
c0 -52 -33 -77 -68 -77c-42 0 -60 36 -60 61c0 22 10 43 26 57l-4 5c-46 -9 -94 -45 -152 -132c-30 -44 -75 -132 -96 -216l-65 -257c-5 -21 -2 -39 20 -49c10 -5 62 -12 81 -13l-2 -6h-340zM568 818l-176 -97l-4 5l117 149c26 34 48 52 79 52c25 0 42 -20 42 -39
c0 -31 -19 -49 -58 -70z" />
    <glyph glyph-name="yacute" unicode="&#xfd;" horiz-adv-x="543" 
d="M78 -239c-93 0 -119 52 -119 89c0 57 41 83 78 83c36 0 55 -27 55 -50c0 -35 -18 -49 -36 -55c-20 -8 -48 -2 -55 -17c2 -26 35 -40 73 -40c128 0 194 113 257 321l-3 1c-37 -57 -90 -106 -151 -106c-69 0 -114 52 -114 112c0 15 9 47 20 75l58 151c18 45 29 81 29 98
s-8 26 -22 26c-44 0 -84 -52 -117 -137l-9 4c35 88 71 151 146 151c56 0 100 -29 100 -85c0 -23 -7 -48 -17 -77l-64 -162c-12 -31 -25 -69 -25 -89c0 -23 12 -40 43 -40c46 0 91 43 130 109l104 330h113l-108 -346c-82 -262 -215 -346 -366 -346zM464 605l-176 -97l-4 5
l117 149c26 34 48 52 79 52c25 0 42 -20 42 -39c0 -31 -19 -49 -58 -70z" />
    <glyph glyph-name="Thorn" unicode="&#xde;" horiz-adv-x="616" 
d="M145 683h326l-1 -5c-19 -2 -52 -6 -71 -12c-26 -8 -38 -26 -44 -48l-22 -77h77c132 0 203 -53 202 -150c-3 -140 -143 -218 -332 -218h-50l-28 -105c-6 -20 -4 -38 17 -48c11 -5 52 -13 71 -14l-1 -6h-333l1 6c18 1 59 5 74 9c26 9 37 28 43 49l152 549c6 20 7 39 -16 50
c-14 6 -51 13 -67 14zM234 183h46c121 0 197 80 200 203c2 95 -37 144 -110 144h-40z" />
    <glyph glyph-name="thorn" unicode="&#xfe;" horiz-adv-x="512" 
d="M-152 -234l2 7c46 1 59 8 71 22c19 21 30 60 38 84l235 743c11 34 15 54 15 67c0 22 -18 29 -40 32c-25 3 -40 3 -64 4v7l240 10l-96 -295c-9 -29 -18 -56 -31 -81l3 -2c40 56 83 104 148 104c60 0 126 -34 126 -158c0 -75 -33 -160 -87 -224c-49 -59 -116 -99 -190 -99
c-51 0 -79 41 -88 75h-3l-56 -185c-10 -31 -14 -54 -14 -67c0 -22 18 -29 41 -32c25 -3 35 -3 59 -4l-2 -8h-307zM134 81c10 -44 37 -73 75 -73c37 0 74 43 104 102c40 78 67 185 67 260c0 48 -18 65 -44 65c-45 0 -85 -43 -120 -96z" />
    <glyph glyph-name="Zcaron" unicode="&#x17d;" horiz-adv-x="606" 
d="M319 934l114 -120l184 120l5 -4c-50 -58 -114 -132 -150 -175c-18 -20 -24 -23 -55 -23c-29 0 -33 3 -40 21c-15 38 -46 127 -64 178zM-67 0l2 8l598 665h-142c-36 0 -67 -1 -88 -6c-62 -13 -151 -115 -188 -170h-8l68 186h517l-2 -8l-598 -665h157c65 0 134 7 161 26
c54 39 128 126 158 171h8l-74 -207h-569z" />
    <glyph glyph-name="zcaron" unicode="&#x17e;" horiz-adv-x="431" 
d="M185 721l114 -120l184 120l5 -4c-50 -58 -114 -132 -150 -175c-18 -20 -24 -23 -55 -23c-29 0 -33 3 -40 21c-15 38 -46 127 -64 178zM16 -13c-17 0 -37 11 -37 40c0 22 18 41 51 67c67 55 203 154 308 227l-2 4c-53 -2 -139 31 -184 31c-29 0 -46 -10 -46 -32
s28 -45 59 -55l-3 -6c-56 18 -101 46 -101 91c0 61 43 112 95 112c94 0 139 -131 187 -131c36 0 36 43 36 77s16 55 42 55c21 0 39 -9 39 -36c0 -28 -15 -47 -50 -75c-49 -39 -206 -150 -303 -223l1 -5c57 -1 115 -33 178 -34c45 -1 67 16 69 37c1 24 -21 43 -47 48l3 7
c60 -13 81 -49 81 -86c0 -57 -40 -112 -97 -112c-98 0 -144 131 -197 132c-31 -8 -35 -51 -35 -86c0 -30 -14 -47 -47 -47z" />
    <glyph glyph-name="onehalf" unicode="&#xbd;" horiz-adv-x="547" 
d="M179 339l1 5c13 1 50 3 62 6c14 4 28 17 32 32l86 319c-7 -2 -15 -3 -29 -3c-24 0 -53 10 -74 34l2 4c18 -10 48 -16 71 -16c64 0 110 17 136 29h7c-16 -27 -28 -69 -36 -100l-71 -264c-5 -16 0 -27 13 -32c9 -4 45 -8 57 -9l-2 -5h-255zM42 244l8 29h469l-8 -29h-469z
M7 -227l11 36c83 47 136 76 198 124c81 61 115 120 115 183c0 34 -18 58 -57 58c-66 0 -136 -73 -136 -128c0 -22 11 -41 41 -41c36 0 62 28 80 47l4 -4c-30 -38 -74 -79 -129 -79c-40 0 -65 24 -64 59c0 85 125 155 215 155c80 0 133 -40 133 -97
c0 -99 -118 -160 -270 -212l-53 -31h200c35 0 68 40 98 74l6 -3l-90 -141h-302z" />
    <glyph glyph-name="onequarter" unicode="&#xbc;" horiz-adv-x="547" 
d="M179 339l1 5c13 1 50 3 62 6c14 4 28 17 32 32l86 319c-7 -2 -15 -3 -29 -3c-24 0 -53 10 -74 34l2 4c18 -10 48 -16 71 -16c64 0 110 17 136 29h7c-16 -27 -28 -69 -36 -100l-71 -264c-5 -16 0 -27 13 -32c9 -4 45 -8 57 -9l-2 -5h-255zM44 244l8 29h469l-8 -29h-469z
M208 -240l35 103c-36 6 -81 35 -129 35c-13 0 -18 -1 -24 -2c-21 -20 -45 -36 -61 -36c-17 0 -27 6 -27 22c0 19 20 27 42 27c11 0 28 -1 43 -3c57 50 88 130 130 280h96c-52 -134 -122 -217 -216 -282c16 3 41 10 64 10c32 0 70 -5 95 -8l51 139h81l-52 -140
c23 2 61 12 81 35l4 -4c-26 -36 -59 -65 -97 -72l-37 -104h-79z" />
    <glyph glyph-name="onesuperior" unicode="&#xb9;" horiz-adv-x="342" 
d="M51 339l1 5c13 1 50 3 62 6c14 4 28 17 32 32l86 319c-7 -2 -15 -3 -29 -3c-24 0 -53 10 -74 34l2 4c18 -10 48 -16 71 -16c64 0 110 17 136 29h7c-16 -27 -27 -69 -35 -100l-72 -264c-4 -16 0 -27 13 -32c9 -4 45 -8 57 -9l-1 -5h-256z" />
    <glyph glyph-name="threequarters" unicode="&#xbe;" horiz-adv-x="547" 
d="M37 244l8 29h468l-7 -29h-469zM197 -240l36 103c-36 6 -81 35 -130 35c-13 0 -17 -1 -24 -2c-20 -20 -44 -36 -60 -36s-28 6 -28 22c0 19 21 27 43 27c11 0 28 -1 42 -3c58 50 89 130 130 280h96c-50 -134 -121 -217 -215 -282c15 3 41 10 64 10c31 0 69 -5 94 -8l51 139
h82l-52 -140c23 2 61 12 81 35l4 -4c-26 -36 -59 -65 -98 -72l-36 -104h-80zM256 328c-73 0 -130 30 -127 84c2 45 42 71 71 71s43 -17 42 -35c-2 -41 -50 -40 -57 -64c-6 -20 15 -48 66 -48c74 0 145 69 153 153c5 34 -1 63 -34 63c-22 0 -51 -24 -81 -44l-7 17
c104 51 159 70 166 146c5 43 -17 66 -51 66c-52 0 -105 -43 -108 -88c-4 -20 6 -39 32 -39c21 0 39 12 52 24l3 -5c-22 -23 -53 -48 -90 -48c-47 0 -67 22 -64 52c5 66 107 113 194 113c84 0 125 -37 123 -82c-1 -59 -70 -88 -154 -96l-21 -10c7 1 17 2 26 2
c53 0 111 -24 109 -85c-2 -94 -141 -147 -243 -147z" />
    <glyph glyph-name="threesuperior" unicode="&#xb3;" horiz-adv-x="428" 
d="M182 328c-73 0 -131 30 -127 84c2 45 42 71 71 71c28 0 42 -15 41 -34c-2 -46 -50 -41 -57 -65c-5 -20 16 -48 67 -48c73 0 144 69 153 153c5 34 -1 63 -35 63c-22 0 -50 -24 -80 -44l-8 17c105 51 159 70 167 146c5 43 -17 66 -51 66c-53 0 -105 -43 -109 -88
c-3 -20 7 -39 33 -39c21 0 38 12 52 24l4 -5c-24 -23 -54 -48 -92 -48c-47 0 -66 22 -63 52c4 66 106 113 194 113c84 0 124 -37 123 -82c-2 -59 -70 -88 -154 -96l-22 -10c7 1 18 2 28 2c52 0 109 -24 108 -85c-2 -94 -141 -147 -243 -147z" />
    <glyph glyph-name="twosuperior" unicode="&#xb2;" horiz-adv-x="434" 
d="M55 335l10 36c84 48 137 78 199 124c81 61 115 120 115 184c0 34 -18 58 -57 58c-66 0 -137 -74 -137 -128c0 -23 11 -40 41 -40c37 0 62 27 81 45l4 -4c-30 -37 -74 -78 -129 -78c-40 0 -65 24 -65 59c0 84 125 155 216 155c80 0 132 -41 133 -97
c0 -99 -118 -160 -270 -213l-53 -30h200c35 0 68 40 97 74l6 -3l-89 -142h-302z" />
    <glyph glyph-name="brokenbar" unicode="&#xa6;" horiz-adv-x="275" 
d="M133 -207v392h33v-392h-33zM133 363v383h33v-383h-33z" />
    <glyph glyph-name="minus" unicode="&#x2212;" horiz-adv-x="562" 
d="M46 280h477v-40h-477v40z" />
    <glyph glyph-name="multiply" unicode="&#xd7;" horiz-adv-x="562" 
d="M98 39l-27 27l193 192l-191 191l29 29l191 -190l189 190l27 -27l-191 -190l192 -191l-28 -30l-193 192z" />
    <glyph glyph-name="numbersign" unicode="#" horiz-adv-x="506" 
d="M90 -7l42 157l-119 -28l23 89l119 27l34 125l-119 -28l23 87l119 28l48 177h16l-47 -172l128 30l38 142h16l-37 -137l120 28l-23 -87l-120 -28l-34 -126l120 28l-23 -87l-119 -28l-53 -197h-16l50 191l-127 -30l-43 -161h-16zM172 242l127 31l35 125l-128 -31z" />
    <glyph glyph-name="dollar" unicode="$" horiz-adv-x="552" 
d="M124 -142l37 144c-99 16 -143 70 -143 121c0 50 34 101 83 101c27 0 43 -16 43 -41c0 -46 -42 -52 -67 -82c-7 -34 16 -75 87 -89c0 0 66 259 66 258c-77 18 -130 59 -130 137c0 108 87 190 219 206l25 100h12l-26 -98c26 2 61 2 88 -3l26 101h12l-26 -102
c87 -15 121 -63 121 -106c0 -47 -34 -91 -71 -91c-25 0 -44 13 -44 37c0 47 43 56 62 89c-1 16 -17 49 -71 60l-62 -243c85 -19 136 -63 136 -137c0 -121 -91 -202 -228 -220l-36 -142h-12l36 140c-28 -2 -59 0 -88 3l-37 -143h-12zM175 10c28 -3 66 -4 89 -1l61 242
c-25 7 -59 11 -84 16zM276 11c82 13 130 78 134 141c4 53 -19 82 -74 96zM353 359l63 243c-27 4 -62 5 -88 2l-58 -228c25 -7 60 -11 83 -17zM258 380c0 0 57 222 57 221c-74 -14 -122 -72 -122 -132c0 -51 24 -76 65 -89z" />
    <glyph glyph-name="percent" unicode="%" horiz-adv-x="827" 
d="M203 288c-80 0 -136 49 -136 127c2 108 98 204 208 204c82 0 145 -47 144 -129c-2 -117 -112 -202 -216 -202zM206 298c72 0 128 141 126 235c0 43 -18 78 -56 78c-80 0 -122 -150 -123 -227c-2 -45 9 -86 53 -86zM101 -97l-14 11l644 774l13 -11zM563 -13
c-80 0 -137 48 -136 127c1 108 98 204 207 204c82 0 146 -48 145 -129c-2 -117 -112 -202 -216 -202zM565 -4c72 0 129 141 127 234c-1 44 -20 79 -56 79c-81 0 -123 -149 -124 -226c0 -45 10 -87 53 -87z" />
    <glyph glyph-name="asterisk" unicode="*" horiz-adv-x="375" 
d="M223 403c-18 4 -24 19 -21 35c6 20 42 70 55 108c-36 -13 -77 -44 -101 -55c-18 -8 -33 -4 -40 15c-7 20 6 34 25 36c28 5 69 0 115 8c-37 28 -76 47 -101 66c-17 12 -19 28 -4 42c14 14 33 10 42 -4c17 -23 39 -70 66 -100c4 41 -1 101 4 122c4 17 18 24 34 20
c22 -5 26 -20 22 -34c-6 -19 -40 -70 -55 -109c38 15 78 45 102 56c18 8 32 2 38 -17c5 -21 -6 -32 -27 -35c-26 -4 -69 -1 -111 -10c34 -26 72 -43 96 -63c16 -10 19 -28 3 -43c-14 -11 -29 -9 -41 7c-15 21 -36 67 -62 96c-5 -38 1 -101 -3 -121c-4 -14 -18 -24 -36 -20z
" />
    <glyph glyph-name="plus" unicode="+" horiz-adv-x="562" 
d="M263 19v220h-220v41h220v221h43v-221h219v-41h-219v-220h-43z" />
    <glyph glyph-name="slash" unicode="/" horiz-adv-x="404" 
d="M-84 -213l-23 13l568 952l23 -13z" />
    <glyph glyph-name="less" unicode="&#x3c;" horiz-adv-x="562" 
d="M505 33l-442 211v32l442 211v-43l-388 -184l388 -184v-43z" />
    <glyph glyph-name="equal" unicode="=" horiz-adv-x="562" 
d="M71 155v41h442v-41h-442zM71 324v41h442v-41h-442z" />
    <glyph glyph-name="greater" unicode="&#x3e;" horiz-adv-x="562" 
d="M514 244l-442 -211v43l389 184l-389 184v43l442 -211v-32z" />
    <glyph glyph-name="at" unicode="@" horiz-adv-x="984" 
d="M486 -215c-218 0 -420 140 -420 394c0 271 227 477 485 477c199 0 326 -134 326 -322c0 -163 -108 -301 -233 -301c-55 0 -100 30 -101 86l-3 1c-27 -45 -70 -85 -115 -85s-106 31 -106 133c0 93 88 258 223 258c36 0 67 -24 72 -64h3l22 58h76l-94 -269
c-6 -16 -11 -40 -11 -57c0 -28 11 -51 43 -51c94 0 206 119 206 297c0 173 -128 292 -306 292c-184 0 -384 -165 -384 -448c0 -242 152 -368 336 -368c188 0 346 99 416 303l7 -3c-65 -222 -250 -331 -442 -331zM440 55c46 0 79 44 107 94l63 192c-8 55 -34 72 -68 72
c-81 0 -146 -174 -146 -277c-1 -69 25 -81 44 -81z" />
    <glyph glyph-name="bracketleft" unicode="[" horiz-adv-x="561" 
d="M357 -199l-4 4c15 13 31 33 31 55c0 18 -16 36 -84 36c-98 0 -176 -18 -311 -47l-25 -8l236 886l21 -8c120 -29 192 -47 285 -47c46 0 114 4 114 62c0 13 -3 22 -7 30l5 2c5 -6 13 -25 13 -44c0 -82 -71 -135 -162 -135c-101 0 -158 57 -246 119l-226 -844
c121 62 208 121 309 121c72 0 104 -30 105 -79c0 -41 -21 -79 -54 -103z" />
    <glyph glyph-name="backslash" unicode="\" horiz-adv-x="404" 
d="M254 -206l-26 -2l-58 952l26 2z" />
    <glyph glyph-name="bracketright" unicode="]" horiz-adv-x="561" 
d="M197 766l5 -3c-14 -14 -31 -34 -31 -57c0 -17 16 -36 83 -36c100 0 177 18 312 47l25 8l-236 -886l-21 8c-120 29 -186 49 -284 49c-47 0 -116 -4 -116 -63c0 -14 4 -22 8 -30l-5 -2c-5 6 -13 24 -13 43c0 82 72 135 162 135c101 0 158 -56 246 -119l226 846
c-120 -63 -208 -122 -309 -122c-73 0 -104 30 -104 79c0 40 20 80 52 103z" />
    <glyph glyph-name="asciicircum" unicode="^" horiz-adv-x="436" 
d="M77 396l-5 4c76 102 106 146 149 200c10 14 19 20 54 20c39 0 45 -5 54 -22c29 -58 41 -84 97 -199l-8 -3l-148 143z" />
    <glyph glyph-name="underscore" unicode="_" horiz-adv-x="598" 
d="M-106 -149v41h610v-41h-610z" />
    <glyph glyph-name="braceleft" unicode="{" horiz-adv-x="416" 
d="M266 -169c-128 0 -183 27 -181 113c3 85 66 156 66 235c0 61 -40 81 -125 88l10 41c136 12 184 52 196 196c13 177 81 241 269 240l-1 -6c-111 -4 -141 -74 -154 -190c-20 -174 -104 -218 -249 -242l-10 -37c91 -14 154 -37 154 -119c0 -87 -58 -162 -59 -233
c-1 -46 22 -77 86 -80z" />
    <glyph glyph-name="bar" unicode="|" horiz-adv-x="275" 
d="M133 -207v953h33v-953h-33z" />
    <glyph glyph-name="braceright" unicode="}" horiz-adv-x="416" 
d="M-70 -169l1 6c112 4 142 74 154 190c20 174 105 218 249 242l11 37c-92 14 -155 37 -155 119c0 87 59 162 59 233c1 46 -22 77 -85 80l1 6c129 0 183 -27 181 -113c-2 -85 -65 -156 -65 -235c0 -61 39 -81 124 -88l-10 -41c-135 -12 -184 -52 -195 -196
c-14 -177 -82 -241 -270 -240z" />
    <glyph glyph-name="asciitilde" unicode="~" horiz-adv-x="529" 
d="M53 194l-5 2c27 68 86 134 155 134c75 0 120 -46 171 -46s83 20 112 63l5 -3c-28 -69 -82 -136 -149 -136c-80 0 -121 46 -172 46s-88 -17 -117 -60z" />
    <glyph glyph-name="Adieresis" unicode="&#xc4;" horiz-adv-x="671" 
d="M-105 0l2 5c14 1 41 8 63 18c30 15 62 47 93 86c132 160 325 405 463 585h24c2 -13 8 -616 8 -620c1 -28 2 -46 22 -56c15 -8 39 -12 58 -13l-2 -5h-319l2 5c31 2 69 7 85 15c24 10 31 32 30 51l-1 187h-231c-40 -50 -91 -119 -106 -139c-19 -26 -39 -54 -39 -70
c0 -31 70 -42 102 -44l-1 -5h-253zM203 273h220l-1 274c-24 -28 -147 -184 -219 -274zM433 745c-33 0 -62 28 -62 62c0 35 29 64 62 64c34 0 62 -29 62 -62c0 -35 -28 -64 -62 -64zM627 745c-33 0 -61 28 -61 62c0 35 28 64 61 64c35 0 62 -29 62 -62c0 -35 -28 -64 -62 -64
z" />
    <glyph glyph-name="Aring" unicode="&#xc5;" horiz-adv-x="671" 
d="M-105 0l2 5c14 1 41 8 63 18c30 15 62 47 93 86c132 160 325 405 463 585h24c2 -13 8 -616 8 -620c1 -28 2 -46 22 -56c15 -8 39 -12 58 -13l-2 -5h-319l2 5c31 2 69 7 85 15c24 10 31 32 30 51l-1 187h-231c-40 -50 -91 -119 -106 -139c-19 -26 -39 -54 -39 -70
c0 -31 70 -42 102 -44l-1 -5h-253zM203 273h220l-1 274c-24 -28 -147 -184 -219 -274zM537 722c-62 0 -115 36 -114 94c2 63 65 108 130 108c60 0 114 -38 112 -95c-2 -63 -62 -107 -128 -107zM534 732c46 0 67 62 69 106c1 39 -11 75 -48 75c-44 0 -68 -59 -69 -106
c-2 -38 11 -75 48 -75z" />
    <glyph glyph-name="Ccedilla" unicode="&#xc7;" horiz-adv-x="635" 
d="M161 -228l3 10c83 2 149 26 149 72c1 25 -18 33 -68 33l32 100c-143 14 -233 114 -233 253c0 234 167 457 417 457c68 0 128 -29 162 -57l49 53h8l-49 -248h-9c-9 132 -53 241 -172 241c-74 0 -146 -61 -196 -151c-43 -77 -71 -176 -73 -277c-2 -137 50 -244 173 -244
c99 0 172 66 237 165l9 -5c-58 -96 -136 -189 -285 -189c-9 0 -17 1 -25 1l-11 -35c77 0 121 -25 120 -72c-1 -88 -122 -109 -238 -107z" />
    <glyph glyph-name="Eacute" unicode="&#xc9;" horiz-adv-x="641" 
d="M542 818l-176 -97l-4 5l117 149c26 34 48 52 79 52c25 0 42 -20 42 -39c0 -31 -19 -49 -58 -70zM-48 0l2 6c15 0 61 4 78 10c25 9 37 28 43 51l151 543c5 21 8 42 -15 53c-16 6 -53 13 -71 14l2 6h536l-46 -165h-8c-7 73 -37 145 -81 151c-21 3 -56 4 -88 4h-85l-87 -312
h79c47 0 78 20 96 36c19 17 45 57 60 94h8l-78 -280h-6c4 29 4 79 -9 106c-9 18 -28 34 -75 34h-78l-69 -250c-24 -86 -4 -91 95 -91c66 0 124 4 153 27c46 37 106 117 133 157h8l-65 -194h-583z" />
    <glyph glyph-name="Ntilde" unicode="&#xd1;" horiz-adv-x="716" 
d="M-61 0l2 6c23 1 74 10 93 23c27 17 49 58 70 137l104 388c8 29 13 69 -11 94c-19 19 -53 28 -93 29l2 6h220l230 -506l90 340c9 32 31 112 2 135c-16 14 -70 24 -92 25l1 6h269l-1 -6c-18 -1 -73 -9 -95 -21c-33 -19 -52 -71 -69 -135l-141 -527h-18l-269 602l-113 -429
c-10 -34 -28 -112 -4 -137c16 -16 78 -23 96 -24l-2 -6h-271zM314 744l-9 4c23 40 83 139 143 139c65 0 92 -65 142 -65c37 0 77 36 101 71l7 -3c-26 -49 -81 -142 -141 -142c-63 0 -95 65 -144 65c-36 0 -75 -34 -99 -69z" />
    <glyph glyph-name="Odieresis" unicode="&#xd6;" horiz-adv-x="722" 
d="M380 755c-33 0 -62 28 -62 62c0 35 29 64 62 64c34 0 62 -29 62 -62c0 -35 -28 -64 -62 -64zM574 755c-33 0 -61 28 -61 62c0 35 28 64 61 64c35 0 62 -29 62 -62c0 -35 -28 -64 -62 -64zM307 -16c-150 0 -259 112 -259 274c0 94 32 187 85 262c75 106 190 178 316 178
c148 0 263 -105 263 -269c0 -98 -34 -195 -91 -274c-73 -101 -185 -171 -314 -171zM307 -6c79 0 144 61 193 154c47 90 80 220 82 331c2 119 -29 209 -127 209c-66 0 -117 -39 -162 -102c-65 -93 -113 -248 -116 -383c-2 -122 34 -209 130 -209z" />
    <glyph glyph-name="Udieresis" unicode="&#xdc;" horiz-adv-x="770" 
d="M336 -16c-151 0 -235 60 -235 161c0 27 4 57 14 91l103 375c6 21 6 40 -16 51c-14 6 -51 14 -67 15l2 6h332l-2 -6c-19 -1 -58 -6 -77 -11c-26 -8 -38 -30 -44 -51l-100 -360c-11 -42 -18 -81 -18 -113c0 -70 48 -122 142 -122c125 0 205 71 245 215l80 283
c10 32 31 112 3 134c-17 14 -73 24 -95 25l2 6h274l-2 -6c-18 -1 -75 -7 -97 -20c-33 -19 -51 -70 -69 -134l-83 -293c-47 -162 -126 -246 -292 -246zM445 755c-33 0 -62 28 -62 62c0 35 29 64 62 64c34 0 62 -29 62 -62c0 -35 -28 -64 -62 -64zM639 755
c-33 0 -61 28 -61 62c0 35 28 64 61 64c35 0 62 -29 62 -62c0 -35 -28 -64 -62 -64z" />
    <glyph glyph-name="aacute" unicode="&#xe1;" horiz-adv-x="540" 
d="M145 -13c-62 0 -128 40 -128 156c0 74 35 158 89 222c51 60 119 103 190 103c48 0 79 -41 84 -79h3l24 73h112l-115 -333c-17 -48 -25 -79 -26 -96c0 -20 9 -28 24 -28c44 0 89 53 122 138l10 -3c-36 -89 -75 -152 -149 -152c-56 0 -100 30 -90 106l-4 1
c-36 -66 -90 -108 -146 -108zM176 16c38 -1 78 32 116 100l82 251c-8 53 -34 82 -70 82c-37 0 -76 -45 -107 -107c-39 -77 -66 -180 -64 -258c0 -47 16 -67 43 -68zM444 605l-176 -97l-4 5l117 149c26 34 48 52 79 52c25 0 42 -20 42 -39c0 -31 -19 -49 -58 -70z" />
    <glyph glyph-name="agrave" unicode="&#xe0;" horiz-adv-x="540" 
d="M145 -13c-62 0 -128 40 -128 156c0 74 35 158 89 222c51 60 119 103 190 103c48 0 79 -41 84 -79h3l24 73h112l-115 -333c-17 -48 -25 -79 -26 -96c0 -20 9 -28 24 -28c44 0 89 53 122 138l10 -3c-36 -89 -75 -152 -149 -152c-56 0 -100 30 -90 106l-4 1
c-36 -66 -90 -108 -146 -108zM176 16c38 -1 78 32 116 100l82 251c-8 53 -34 82 -70 82c-37 0 -76 -45 -107 -107c-39 -77 -66 -180 -64 -258c0 -47 16 -67 43 -68zM407 506l-124 97c-27 21 -46 41 -46 66s21 46 47 46c33 0 45 -21 65 -64l63 -140z" />
    <glyph glyph-name="acircumflex" unicode="&#xe2;" horiz-adv-x="540" 
d="M145 -13c-62 0 -128 40 -128 156c0 74 35 158 89 222c51 60 119 103 190 103c48 0 79 -41 84 -79h3l24 73h112l-115 -333c-17 -48 -25 -79 -26 -96c0 -20 9 -28 24 -28c44 0 89 53 122 138l10 -3c-36 -89 -75 -152 -149 -152c-56 0 -100 30 -90 106l-4 1
c-36 -66 -90 -108 -146 -108zM176 16c38 -1 78 32 116 100l82 251c-8 53 -34 82 -70 82c-37 0 -76 -45 -107 -107c-39 -77 -66 -180 -64 -258c0 -47 16 -67 43 -68zM491 510l-115 121l-183 -121l-6 5c52 58 115 132 151 174c17 21 24 23 56 23c27 0 32 -3 39 -21
c14 -37 45 -126 64 -178z" />
    <glyph glyph-name="adieresis" unicode="&#xe4;" horiz-adv-x="540" 
d="M145 -13c-62 0 -128 40 -128 156c0 74 35 158 89 222c51 60 119 103 190 103c48 0 79 -41 84 -79h3l24 73h112l-115 -333c-17 -48 -25 -79 -26 -96c0 -20 9 -28 24 -28c44 0 89 53 122 138l10 -3c-36 -89 -75 -152 -149 -152c-56 0 -100 30 -90 106l-4 1
c-36 -66 -90 -108 -146 -108zM176 16c38 -1 78 32 116 100l82 251c-8 53 -34 82 -70 82c-37 0 -76 -45 -107 -107c-39 -77 -66 -180 -64 -258c0 -47 16 -67 43 -68zM256 536c-33 0 -62 28 -62 62c0 35 29 64 62 64c34 0 62 -29 62 -62c0 -35 -28 -64 -62 -64zM450 536
c-33 0 -61 28 -61 62c0 35 28 64 61 64c35 0 62 -29 62 -62c0 -35 -28 -64 -62 -64z" />
    <glyph glyph-name="atilde" unicode="&#xe3;" horiz-adv-x="540" 
d="M145 -13c-62 0 -128 40 -128 156c0 74 35 158 89 222c51 60 119 103 190 103c48 0 79 -41 84 -79h3l24 73h112l-115 -333c-17 -48 -25 -79 -26 -96c0 -20 9 -28 24 -28c44 0 89 53 122 138l10 -3c-36 -89 -75 -152 -149 -152c-56 0 -100 30 -90 106l-4 1
c-36 -66 -90 -108 -146 -108zM176 16c38 -1 78 32 116 100l82 251c-8 53 -34 82 -70 82c-37 0 -76 -45 -107 -107c-39 -77 -66 -180 -64 -258c0 -47 16 -67 43 -68zM165 534l-9 4c23 40 83 139 143 139c65 0 92 -65 142 -65c37 0 77 36 101 71l7 -3
c-26 -49 -81 -142 -141 -142c-63 0 -95 65 -144 65c-36 0 -75 -34 -99 -69z" />
    <glyph glyph-name="aring" unicode="&#xe5;" horiz-adv-x="540" 
d="M145 -13c-62 0 -128 40 -128 156c0 74 35 158 89 222c51 60 119 103 190 103c48 0 79 -41 84 -79h3l24 73h112l-115 -333c-17 -48 -25 -79 -26 -96c0 -20 9 -28 24 -28c44 0 89 53 122 138l10 -3c-36 -89 -75 -152 -149 -152c-56 0 -100 30 -90 106l-4 1
c-36 -66 -90 -108 -146 -108zM176 16c38 -1 78 32 116 100l82 251c-8 53 -34 82 -70 82c-37 0 -76 -45 -107 -107c-39 -77 -66 -180 -64 -258c0 -47 16 -67 43 -68zM357 509c-62 0 -115 36 -114 94c2 63 65 108 130 108c60 0 114 -38 112 -95c-2 -63 -62 -107 -128 -107z
M354 519c46 0 67 62 69 106c1 39 -11 75 -48 75c-44 0 -68 -59 -69 -106c-2 -38 11 -75 48 -75z" />
    <glyph glyph-name="ccedilla" unicode="&#xe7;" horiz-adv-x="411" 
d="M30 -228l3 10c83 2 149 26 149 72c1 25 -18 33 -68 33l33 102c-68 10 -130 55 -130 157c0 131 117 322 284 322c60 0 110 -37 110 -94c0 -43 -24 -71 -58 -71c-33 0 -58 18 -58 52c0 29 30 54 72 63c-4 20 -31 41 -63 41c-41 0 -80 -48 -109 -111
c-35 -76 -57 -175 -57 -244c0 -58 21 -95 64 -95c73 0 135 63 176 139l9 -4c-63 -118 -139 -158 -206 -158c-7 0 -15 1 -22 1l-11 -36c77 0 121 -25 120 -72c-1 -88 -122 -109 -238 -107z" />
    <glyph glyph-name="eacute" unicode="&#xe9;" horiz-adv-x="406" 
d="M389 605l-176 -97l-4 5l117 149c26 34 48 52 79 52c25 0 42 -20 42 -39c0 -31 -19 -49 -58 -70zM181 -14c-82 0 -164 43 -164 162s113 320 293 320c56 0 101 -28 101 -76c0 -96 -99 -155 -261 -173c-8 -37 -13 -81 -13 -115c0 -55 20 -92 64 -92c75 0 136 64 176 138
l9 -4c-61 -116 -133 -160 -205 -160zM151 227c121 16 164 104 167 168c3 44 -11 63 -32 63c-50 0 -108 -116 -135 -231z" />
    <glyph glyph-name="egrave" unicode="&#xe8;" horiz-adv-x="406" 
d="M181 -14c-82 0 -164 43 -164 162s113 320 293 320c56 0 101 -28 101 -76c0 -96 -99 -155 -261 -173c-8 -37 -13 -81 -13 -115c0 -55 20 -92 64 -92c75 0 136 64 176 138l9 -4c-61 -116 -133 -160 -205 -160zM151 227c121 16 164 104 167 168c3 44 -11 63 -32 63
c-50 0 -108 -116 -135 -231zM361 506l-124 97c-27 21 -46 41 -46 66s21 46 47 46c33 0 45 -21 65 -64l63 -140z" />
    <glyph glyph-name="ecircumflex" unicode="&#xea;" horiz-adv-x="406" 
d="M440 499l-115 121l-183 -121l-6 5c52 58 115 132 151 174c17 21 24 23 56 23c27 0 32 -3 39 -21c14 -37 45 -126 64 -178zM181 -14c-82 0 -164 43 -164 162s113 320 293 320c56 0 101 -28 101 -76c0 -96 -99 -155 -261 -173c-8 -37 -13 -81 -13 -115c0 -55 20 -92 64 -92
c75 0 136 64 176 138l9 -4c-61 -116 -133 -160 -205 -160zM151 227c121 16 164 104 167 168c3 44 -11 63 -32 63c-50 0 -108 -116 -135 -231z" />
    <glyph glyph-name="edieresis" unicode="&#xeb;" horiz-adv-x="406" 
d="M201 536c-33 0 -62 28 -62 62c0 35 29 64 62 64c34 0 62 -29 62 -62c0 -35 -28 -64 -62 -64zM395 536c-33 0 -61 28 -61 62c0 35 28 64 61 64c35 0 62 -29 62 -62c0 -35 -28 -64 -62 -64zM181 -14c-82 0 -164 43 -164 162s113 320 293 320c56 0 101 -28 101 -76
c0 -96 -99 -155 -261 -173c-8 -37 -13 -81 -13 -115c0 -55 20 -92 64 -92c75 0 136 64 176 138l9 -4c-61 -116 -133 -160 -205 -160zM151 227c121 16 164 104 167 168c3 44 -11 63 -32 63c-50 0 -108 -116 -135 -231z" />
    <glyph glyph-name="iacute" unicode="&#xed;" horiz-adv-x="330" 
d="M300 605l-176 -97l-4 5l117 149c26 34 48 52 79 52c25 0 42 -20 42 -39c0 -31 -19 -49 -58 -70zM163 -11c-54 0 -106 23 -106 84c0 24 5 42 18 77l70 177c18 48 27 79 27 98c0 17 -8 24 -22 24c-45 0 -85 -51 -118 -136l-10 3c36 88 73 152 146 152c56 0 102 -32 102 -91
c0 -22 -16 -66 -27 -95l-59 -152c-20 -51 -30 -82 -30 -98c0 -17 11 -24 27 -24c45 0 87 50 120 135l9 -3c-35 -89 -74 -151 -147 -151z" />
    <glyph glyph-name="igrave" unicode="&#xec;" horiz-adv-x="330" 
d="M163 -11c-54 0 -106 23 -106 84c0 24 5 42 18 77l70 177c18 48 27 79 27 98c0 17 -8 24 -22 24c-45 0 -85 -51 -118 -136l-10 3c36 88 73 152 146 152c56 0 102 -32 102 -91c0 -22 -16 -66 -27 -95l-59 -152c-20 -51 -30 -82 -30 -98c0 -17 11 -24 27 -24
c45 0 87 50 120 135l9 -3c-35 -89 -74 -151 -147 -151zM281 506l-124 97c-27 21 -46 41 -46 66s21 46 47 46c33 0 45 -21 65 -64l63 -140z" />
    <glyph glyph-name="icircumflex" unicode="&#xee;" horiz-adv-x="330" 
d="M351 510l-115 121l-183 -121l-6 5c52 58 115 132 151 174c17 21 24 23 56 23c27 0 32 -3 39 -21c14 -37 45 -126 64 -178zM163 -11c-54 0 -106 23 -106 84c0 24 5 42 18 77l70 177c18 48 27 79 27 98c0 17 -8 24 -22 24c-45 0 -85 -51 -118 -136l-10 3
c36 88 73 152 146 152c56 0 102 -32 102 -91c0 -22 -16 -66 -27 -95l-59 -152c-20 -51 -30 -82 -30 -98c0 -17 11 -24 27 -24c45 0 87 50 120 135l9 -3c-35 -89 -74 -151 -147 -151z" />
    <glyph glyph-name="idieresis" unicode="&#xef;" horiz-adv-x="330" 
d="M125 536c-33 0 -62 28 -62 62c0 35 29 64 62 64c34 0 62 -29 62 -62c0 -35 -28 -64 -62 -64zM319 536c-33 0 -61 28 -61 62c0 35 28 64 61 64c35 0 62 -29 62 -62c0 -35 -28 -64 -62 -64zM163 -11c-54 0 -106 23 -106 84c0 24 5 42 18 77l70 177c18 48 27 79 27 98
c0 17 -8 24 -22 24c-45 0 -85 -51 -118 -136l-10 3c36 88 73 152 146 152c56 0 102 -32 102 -91c0 -22 -16 -66 -27 -95l-59 -152c-20 -51 -30 -82 -30 -98c0 -17 11 -24 27 -24c45 0 87 50 120 135l9 -3c-35 -89 -74 -151 -147 -151z" />
    <glyph glyph-name="ntilde" unicode="&#xf1;" horiz-adv-x="591" 
d="M432 -11c-57 0 -106 26 -106 84c0 24 7 44 19 77l62 163c16 44 25 70 25 86c0 27 -20 36 -41 36c-52 0 -92 -43 -128 -104l-109 -331h-116l110 325c16 48 28 84 28 102c0 16 -9 22 -22 22c-45 0 -84 -51 -117 -136l-10 3c36 90 73 152 147 152c49 0 101 -31 91 -109l3 -1
c46 70 99 110 151 110c65 0 113 -49 113 -108c0 -18 -8 -49 -20 -78l-57 -152c-19 -50 -28 -83 -28 -98c0 -18 12 -24 28 -24c43 0 84 50 118 135l10 -3c-37 -90 -74 -151 -151 -151zM200 534l-9 4c23 40 83 139 143 139c65 0 92 -65 142 -65c37 0 77 36 101 71l7 -3
c-26 -49 -81 -142 -141 -142c-63 0 -95 65 -144 65c-36 0 -75 -34 -99 -69z" />
    <glyph glyph-name="oacute" unicode="&#xf3;" horiz-adv-x="486" 
d="M408 605l-176 -97l-4 5l117 149c26 34 48 52 79 52c25 0 42 -20 42 -39c0 -31 -19 -49 -58 -70zM178 -14c-80 0 -158 59 -158 179c0 70 35 155 95 217c49 51 115 86 191 86c86 0 158 -60 158 -181c0 -64 -29 -139 -79 -199c-50 -59 -121 -102 -207 -102zM184 -5
c42 0 80 47 110 111c35 77 58 180 59 257c0 77 -27 96 -51 96c-48 0 -93 -61 -125 -141c-28 -70 -45 -154 -46 -225c-1 -74 25 -98 53 -98z" />
    <glyph glyph-name="ograve" unicode="&#xf2;" horiz-adv-x="486" 
d="M178 -14c-80 0 -158 59 -158 179c0 70 35 155 95 217c49 51 115 86 191 86c86 0 158 -60 158 -181c0 -64 -29 -139 -79 -199c-50 -59 -121 -102 -207 -102zM184 -5c42 0 80 47 110 111c35 77 58 180 59 257c0 77 -27 96 -51 96c-48 0 -93 -61 -125 -141
c-28 -70 -45 -154 -46 -225c-1 -74 25 -98 53 -98zM391 506l-124 97c-27 21 -46 41 -46 66s21 46 47 46c33 0 45 -21 65 -64l63 -140z" />
    <glyph glyph-name="ocircumflex" unicode="&#xf4;" horiz-adv-x="486" 
d="M455 499l-115 121l-183 -121l-6 5c52 58 115 132 151 174c17 21 24 23 56 23c27 0 32 -3 39 -21c14 -37 45 -126 64 -178zM178 -14c-80 0 -158 59 -158 179c0 70 35 155 95 217c49 51 115 86 191 86c86 0 158 -60 158 -181c0 -64 -29 -139 -79 -199
c-50 -59 -121 -102 -207 -102zM184 -5c42 0 80 47 110 111c35 77 58 180 59 257c0 77 -27 96 -51 96c-48 0 -93 -61 -125 -141c-28 -70 -45 -154 -46 -225c-1 -74 25 -98 53 -98z" />
    <glyph glyph-name="odieresis" unicode="&#xf6;" horiz-adv-x="486" 
d="M229 536c-33 0 -62 28 -62 62c0 35 29 64 62 64c34 0 62 -29 62 -62c0 -35 -28 -64 -62 -64zM423 536c-33 0 -61 28 -61 62c0 35 28 64 61 64c35 0 62 -29 62 -62c0 -35 -28 -64 -62 -64zM178 -14c-80 0 -158 59 -158 179c0 70 35 155 95 217c49 51 115 86 191 86
c86 0 158 -60 158 -181c0 -64 -29 -139 -79 -199c-50 -59 -121 -102 -207 -102zM184 -5c42 0 80 47 110 111c35 77 58 180 59 257c0 77 -27 96 -51 96c-48 0 -93 -61 -125 -141c-28 -70 -45 -154 -46 -225c-1 -74 25 -98 53 -98z" />
    <glyph glyph-name="otilde" unicode="&#xf5;" horiz-adv-x="486" 
d="M178 -14c-80 0 -158 59 -158 179c0 70 35 155 95 217c49 51 115 86 191 86c86 0 158 -60 158 -181c0 -64 -29 -139 -79 -199c-50 -59 -121 -102 -207 -102zM184 -5c42 0 80 47 110 111c35 77 58 180 59 257c0 77 -27 96 -51 96c-48 0 -93 -61 -125 -141
c-28 -70 -45 -154 -46 -225c-1 -74 25 -98 53 -98zM143 528l-9 4c23 40 83 139 143 139c65 0 92 -65 142 -65c37 0 77 36 101 71l7 -3c-26 -49 -81 -142 -141 -142c-63 0 -95 65 -144 65c-36 0 -75 -34 -99 -69z" />
    <glyph glyph-name="uacute" unicode="&#xfa;" horiz-adv-x="587" 
d="M463 605l-176 -97l-4 5l117 149c26 34 48 52 79 52c25 0 42 -20 42 -39c0 -31 -19 -49 -58 -70zM177 -13c-67 0 -114 49 -114 112c0 14 9 46 20 74l58 152c19 47 29 81 29 98s-8 26 -22 26c-44 0 -84 -52 -117 -137l-9 4c35 88 71 151 146 151c55 0 100 -29 100 -85
c0 -24 -6 -45 -17 -77l-66 -167c-15 -41 -23 -67 -23 -86c0 -21 13 -38 41 -38c49 0 94 45 127 101l107 338h116l-108 -326c-12 -37 -23 -72 -23 -92c0 -16 11 -26 25 -26c45 0 85 49 118 134l10 -3c-36 -89 -74 -151 -146 -151c-55 0 -105 29 -99 102l-3 1
c-38 -60 -90 -105 -150 -105z" />
    <glyph glyph-name="ugrave" unicode="&#xf9;" horiz-adv-x="587" 
d="M177 -13c-67 0 -114 49 -114 112c0 14 9 46 20 74l58 152c19 47 29 81 29 98s-8 26 -22 26c-44 0 -84 -52 -117 -137l-9 4c35 88 71 151 146 151c55 0 100 -29 100 -85c0 -24 -6 -45 -17 -77l-66 -167c-15 -41 -23 -67 -23 -86c0 -21 13 -38 41 -38c49 0 94 45 127 101
l107 338h116l-108 -326c-12 -37 -23 -72 -23 -92c0 -16 11 -26 25 -26c45 0 85 49 118 134l10 -3c-36 -89 -74 -151 -146 -151c-55 0 -105 29 -99 102l-3 1c-38 -60 -90 -105 -150 -105zM428 506l-124 97c-27 21 -46 41 -46 66s21 46 47 46c33 0 45 -21 65 -64l63 -140z" />
    <glyph glyph-name="ucircumflex" unicode="&#xfb;" horiz-adv-x="587" 
d="M509 510l-115 121l-183 -121l-6 5c52 58 115 132 151 174c17 21 24 23 56 23c27 0 32 -3 39 -21c14 -37 45 -126 64 -178zM177 -13c-67 0 -114 49 -114 112c0 14 9 46 20 74l58 152c19 47 29 81 29 98s-8 26 -22 26c-44 0 -84 -52 -117 -137l-9 4c35 88 71 151 146 151
c55 0 100 -29 100 -85c0 -24 -6 -45 -17 -77l-66 -167c-15 -41 -23 -67 -23 -86c0 -21 13 -38 41 -38c49 0 94 45 127 101l107 338h116l-108 -326c-12 -37 -23 -72 -23 -92c0 -16 11 -26 25 -26c45 0 85 49 118 134l10 -3c-36 -89 -74 -151 -146 -151c-55 0 -105 29 -99 102
l-3 1c-38 -60 -90 -105 -150 -105z" />
    <glyph glyph-name="udieresis" unicode="&#xfc;" horiz-adv-x="587" 
d="M272 536c-33 0 -62 28 -62 62c0 35 29 64 62 64c34 0 62 -29 62 -62c0 -35 -28 -64 -62 -64zM466 536c-33 0 -61 28 -61 62c0 35 28 64 61 64c35 0 62 -29 62 -62c0 -35 -28 -64 -62 -64zM177 -13c-67 0 -114 49 -114 112c0 14 9 46 20 74l58 152c19 47 29 81 29 98
s-8 26 -22 26c-44 0 -84 -52 -117 -137l-9 4c35 88 71 151 146 151c55 0 100 -29 100 -85c0 -24 -6 -45 -17 -77l-66 -167c-15 -41 -23 -67 -23 -86c0 -21 13 -38 41 -38c49 0 94 45 127 101l107 338h116l-108 -326c-12 -37 -23 -72 -23 -92c0 -16 11 -26 25 -26
c45 0 85 49 118 134l10 -3c-36 -89 -74 -151 -146 -151c-55 0 -105 29 -99 102l-3 1c-38 -60 -90 -105 -150 -105z" />
    <glyph glyph-name="dagger" unicode="&#x2020;" horiz-adv-x="418" 
d="M171 109l-7 1c25 113 51 277 72 388c4 15 3 29 -7 32c-8 3 -18 -5 -30 -13c-16 -13 -39 -29 -61 -25c-29 5 -41 29 -33 59c5 18 21 31 40 26c16 -4 25 -21 24 -46c16 1 46 14 66 9c13 -3 28 -13 35 -26c6 45 -7 108 2 142c6 23 24 43 50 36c28 -7 33 -34 27 -56
c-9 -34 -52 -81 -70 -125c14 7 29 9 43 5c20 -6 40 -30 53 -39c11 20 30 30 47 25s26 -21 20 -41c-9 -29 -31 -41 -59 -33c-21 6 -33 31 -41 50c-6 12 -11 26 -19 28c-10 3 -15 -5 -23 -26c-37 -105 -98 -271 -129 -371z" />
    <glyph glyph-name="degree" unicode="&#xb0;" horiz-adv-x="399" 
d="M250 414c-83 1 -150 52 -149 147c2 88 76 150 153 149c82 -1 154 -49 152 -152c-1 -82 -74 -145 -156 -144zM253 422c46 -1 78 63 80 136c1 77 -22 143 -78 143c-56 2 -80 -70 -82 -138c0 -71 22 -140 80 -141z" />
    <glyph glyph-name="cent" unicode="&#xa2;" horiz-adv-x="462" 
d="M96 -116l-10 3l72 179c-59 17 -113 66 -111 156c0 140 129 319 288 319c4 0 10 0 17 -1l52 130l11 -3l-51 -129c58 -9 93 -48 93 -97c0 -39 -22 -64 -57 -63c-26 0 -49 18 -49 47c1 27 24 51 54 65c-4 18 -23 36 -45 39l-167 -412c11 -10 33 -18 55 -18
c64 0 126 48 167 116l7 -4c-59 -101 -139 -151 -213 -151c-15 0 -26 1 -41 3zM185 126l164 407c-92 1 -192 -185 -192 -323c0 -37 11 -68 28 -84z" />
    <glyph glyph-name="sterling" unicode="&#xa3;" horiz-adv-x="738" 
d="M43 -93c-72 0 -99 32 -98 75c2 64 88 117 189 117c43 0 81 -6 114 -15c8 23 6 56 7 95h-157l1 12h156c1 27 1 70 4 92h-145l1 13h145c18 182 140 381 331 381c128 0 178 -78 176 -152c-5 -97 -72 -168 -181 -168c-66 0 -106 43 -104 103c2 31 10 62 29 94l6 -2
c-15 -27 -21 -56 -23 -80c-2 -58 35 -95 87 -95c63 0 105 61 109 147c3 69 -25 144 -99 144c-110 0 -172 -87 -198 -287c-4 -27 -8 -59 -15 -85h178l-1 -13h-180c-6 -30 -19 -66 -32 -92h195l-1 -12h-200c-17 -37 -39 -70 -69 -101c97 -29 163 -83 247 -83
c101 0 126 65 149 142l9 -2c-24 -100 -79 -219 -237 -219c-74 0 -151 43 -222 78c-45 -51 -104 -87 -171 -87zM43 -82c58 0 120 33 160 83c-43 21 -97 38 -150 38c-54 0 -92 -25 -94 -63c-1 -33 31 -58 84 -58z" />
    <glyph glyph-name="section" unicode="&#xa7;" horiz-adv-x="504" 
d="M128 -226c-75 0 -103 45 -103 87c0 45 35 80 76 80c30 0 48 -24 45 -48c-4 -42 -53 -47 -58 -73c-4 -22 15 -37 42 -37c67 0 113 60 113 123c1 54 -28 100 -81 186c-54 87 -92 146 -93 217c0 83 62 137 157 153c-13 28 -21 61 -21 91c0 109 81 185 192 185
c75 0 100 -47 100 -88c0 -44 -35 -79 -75 -79c-31 0 -49 22 -45 47c2 42 50 47 55 73c3 22 -12 37 -39 37c-70 0 -115 -58 -115 -124c1 -56 34 -105 88 -194c52 -84 87 -140 88 -207c0 -83 -65 -137 -159 -151c14 -30 22 -61 22 -94c0 -105 -77 -184 -189 -184zM291 59
c58 12 87 48 87 100s-31 96 -88 191c-25 38 -45 74 -61 104c-56 -13 -86 -47 -86 -99c0 -53 34 -100 90 -195c23 -37 43 -72 58 -101z" />
    <glyph glyph-name="paragraph" unicode="&#xb6;" horiz-adv-x="599" 
d="M190 -125l118 452h-19c-134 0 -192 71 -191 152c2 111 100 204 247 204h326l-4 -12h-133l-208 -796h-17l207 796h-101l-207 -796h-18z" />
    <glyph glyph-name="germandbls" unicode="&#xdf;" horiz-adv-x="575" 
d="M359 -14c-85 0 -128 45 -128 93c0 40 30 73 63 73s53 -23 53 -47c0 -20 -12 -43 -39 -45c-17 -4 -33 1 -33 -12c0 -30 39 -54 85 -54c50 0 83 40 83 95c0 48 -28 83 -58 118c-32 39 -68 76 -68 129c0 54 37 97 116 140c41 33 64 102 65 163c0 55 -23 97 -69 97
c-64 0 -119 -66 -161 -216c-36 -127 -92 -363 -133 -494c-24 -78 -61 -152 -118 -202c-45 -41 -99 -60 -149 -60c-71 0 -103 39 -103 85c0 27 22 61 61 61c26 0 63 -15 63 -56c0 -27 -31 -49 -42 -65c1 -10 11 -17 18 -17c74 0 102 59 151 220c48 161 94 345 131 487
c22 81 60 152 121 205c44 39 107 61 179 61c87 0 137 -46 137 -110c0 -48 -19 -93 -43 -119c-94 -30 -135 -64 -135 -110c0 -43 29 -80 60 -118c33 -40 70 -82 70 -138c0 -100 -76 -164 -177 -164z" />
    <glyph glyph-name="AE" unicode="&#xc6;" horiz-adv-x="974" 
d="M253 302h222l100 362h-14zM84 128l461 537c-18 7 -76 11 -92 12l2 6h556l-45 -165h-8c-7 73 -37 145 -82 151c-21 3 -55 4 -87 4h-86l-87 -312h80c46 0 77 20 95 36c19 17 45 57 61 94h8l-78 -280h-7c5 29 4 79 -9 106c-9 18 -28 34 -74 34h-79l-69 -250
c-6 -21 -10 -40 -10 -52c0 -35 27 -39 105 -39c66 0 124 4 153 27c46 37 106 117 133 157h9l-66 -194h-583l2 6c16 0 62 4 78 10c25 9 38 28 44 51l62 221h-229l-145 -174c-25 -30 -32 -44 -37 -59c-8 -31 58 -48 100 -50l-2 -5h-261l1 4c19 1 50 8 73 19
c32 15 73 60 113 105z" />
    <glyph glyph-name="Oslash" unicode="&#xd8;" horiz-adv-x="722" 
d="M755 711l-103 -103c35 -45 60 -108 60 -179c0 -123 -49 -240 -137 -328c-67 -67 -164 -117 -268 -117c-72 0 -141 26 -194 84l-109 -110l-9 9l110 111c-37 47 -57 108 -57 180c0 123 52 240 136 323c73 71 170 117 265 117c74 0 141 -25 194 -81l102 103zM307 -6
c164 0 257 257 269 436c4 35 2 78 -1 106l-391 -402c4 -31 11 -57 21 -78c20 -40 53 -62 102 -62zM183 252c-3 -35 -3 -74 -1 -101l392 403c-3 25 -9 48 -18 67c-18 41 -50 67 -101 67c-167 0 -259 -259 -272 -436z" />
    <glyph glyph-name="lessequal" unicode="&#x2264;" horiz-adv-x="562" 
d="M54 0v38h454v-38h-454zM499 80l-442 206v33l442 206v-43l-388 -180l388 -180v-42z" />
    <glyph glyph-name="greaterequal" unicode="&#x2265;" horiz-adv-x="562" 
d="M508 38v-38h-454v38h454zM504 286l-442 -206v42l389 180l-389 180v43l442 -206v-33z" />
    <glyph glyph-name="yen" unicode="&#xa5;" horiz-adv-x="570" 
d="M50 0l2 5c18 1 60 5 75 10c24 8 38 27 44 48l25 90h-154l2 15h155l24 84h-155l3 13h153c-11 49 -52 210 -67 259c-9 31 -21 52 -39 64c-13 9 -28 13 -44 14l1 5h299l-1 -5c-36 -3 -92 -10 -95 -29c-2 -12 28 -145 66 -288c102 120 218 263 220 281c3 24 -51 33 -89 36
l2 5h212l-1 -5c-25 -5 -52 -17 -77 -37c-54 -44 -186 -197 -266 -300h158l-2 -13h-160l-26 -84h160l-1 -15h-163l-24 -86c-5 -21 -2 -40 17 -48c12 -7 50 -13 68 -14l-1 -5h-321z" />
    <glyph glyph-name="mu" unicode="&#xb5;" horiz-adv-x="577" 
d="M420 -11c-55 0 -105 29 -99 102l-3 1c-38 -60 -90 -105 -150 -105c-64 0 -99 38 -112 88h-2l-17 -54c-20 -69 -11 -139 -21 -187c-9 -41 -29 -60 -54 -60c-19 0 -37 17 -30 51c6 37 38 75 59 123c14 32 30 69 44 115l126 390h118l-104 -311c-14 -40 -22 -71 -22 -90
c0 -21 13 -38 41 -38c49 0 94 45 126 101l108 338h116l-109 -326c-11 -37 -22 -72 -22 -92c0 -16 11 -26 24 -26c46 0 86 49 119 134l10 -3c-36 -89 -74 -151 -146 -151z" />
    <glyph glyph-name="ordfeminine" unicode="&#xaa;" horiz-adv-x="372" 
d="M156 345c-41 0 -82 22 -82 89c0 86 81 186 168 186c26 0 43 -14 49 -44h1l12 40h68l-62 -186c-8 -22 -14 -46 -14 -53c0 -11 6 -15 12 -16c27 -1 53 29 69 75l7 -3c-19 -49 -42 -87 -86 -87c-31 0 -59 19 -58 58h-3c-15 -26 -43 -59 -81 -59zM177 366c21 0 43 21 60 49
l48 151c-5 30 -17 38 -36 38c-46 0 -103 -120 -103 -193c0 -30 13 -45 31 -45zM55 256l7 26h252l-6 -26h-253z" />
    <glyph glyph-name="ordmasculine" unicode="&#xba;" horiz-adv-x="344" 
d="M176 345c-46 0 -96 34 -96 105c0 74 71 170 172 170c48 0 96 -35 96 -106c0 -75 -72 -169 -172 -169zM180 351c55 0 96 127 96 203c0 41 -11 60 -28 60c-52 0 -98 -123 -98 -202c-1 -39 11 -61 30 -61zM52 256l6 26h248l-7 -26h-247z" />
    <glyph glyph-name="ae" unicode="&#xe6;" horiz-adv-x="698" 
d="M473 -14c-70 0 -149 29 -161 140h-2c-44 -84 -97 -139 -165 -139c-62 0 -128 40 -128 156c0 76 37 164 95 229c50 57 116 96 184 96c48 0 79 -41 84 -79h3l24 73h79l-15 -43c37 29 81 49 132 49c55 0 100 -28 100 -76c0 -96 -99 -155 -261 -173c-8 -37 -13 -81 -13 -115
c0 -55 21 -92 64 -92c76 0 136 64 176 138l9 -4c-61 -116 -133 -160 -205 -160zM176 16c38 -1 78 32 116 100l82 251c-8 53 -34 82 -70 82c-39 0 -80 -50 -112 -118c-36 -76 -61 -173 -59 -247c0 -47 16 -67 43 -68zM443 227c121 16 164 104 167 168c3 44 -11 63 -32 63
c-51 0 -109 -116 -135 -231z" />
    <glyph glyph-name="oslash" unicode="&#xf8;" horiz-adv-x="486" 
d="M6 -27l58 65c-27 29 -43 71 -43 127c0 73 38 161 101 223c48 48 111 80 185 80c40 0 78 -14 106 -41l55 61l8 -9l-54 -61c27 -30 43 -73 43 -131c0 -68 -32 -149 -88 -210c-49 -53 -117 -91 -198 -91c-40 0 -79 15 -107 44l-58 -64zM185 -5c79 0 140 151 156 277
c3 24 5 47 6 68l-211 -245c0 -33 0 -100 49 -100zM137 113l211 246c2 32 3 100 -45 100c-78 0 -145 -151 -161 -284c-3 -22 -5 -42 -5 -62z" />
    <glyph glyph-name="questiondown" unicode="&#xbf;" horiz-adv-x="445" 
d="M281 519c56 0 100 -39 100 -98c0 -74 -52 -122 -143 -165c-90 -42 -129 -76 -128 -147c2 -56 39 -107 110 -107c73 0 125 50 125 105c0 47 -34 80 -76 80c-9 0 -23 -2 -29 -5v-4c28 0 55 -17 55 -46s-20 -52 -51 -52c-35 0 -58 19 -58 54c0 40 35 65 80 65
c51 0 91 -35 91 -91c0 -68 -61 -121 -156 -121c-118 0 -187 74 -187 154c0 82 53 135 142 174c103 45 162 86 162 147c0 29 -23 43 -44 43c-38 0 -68 -38 -76 -84l-8 3c10 58 45 95 91 95zM344 696c39 0 70 -30 70 -69c0 -40 -31 -70 -70 -70c-40 0 -70 30 -70 70
c0 39 30 69 70 69z" />
    <glyph glyph-name="exclamdown" unicode="&#xa1;" horiz-adv-x="337" 
d="M244 470c-29 -167 -32 -355 -45 -407c-12 -43 -41 -76 -83 -76c-39 0 -60 26 -58 66c2 60 109 233 178 418zM278 694c40 0 70 -30 70 -69s-30 -70 -70 -70c-39 0 -70 31 -70 70s31 69 70 69z" />
    <glyph glyph-name="logicalnot" unicode="&#xac;" horiz-adv-x="562" 
d="M454 39v213h-412v41h458v-254h-46z" />
    <glyph glyph-name="florin" unicode="&#x192;" horiz-adv-x="502" 
d="M-99 -194c-51 0 -95 23 -95 73c0 31 23 64 60 64c34 0 53 -19 53 -53c0 -26 -23 -52 -41 -63c3 -8 15 -13 27 -13c69 0 117 72 168 224c40 116 60 194 85 280h-106l5 16h105c31 103 66 175 130 229c48 39 100 61 166 61c64 0 111 -29 111 -78c0 -31 -20 -62 -56 -62
c-33 0 -55 16 -55 49c0 21 15 46 37 68c-4 8 -23 15 -42 15c-68 0 -116 -75 -157 -220l-18 -62h126l-5 -16h-124c-29 -97 -52 -178 -78 -252c-26 -77 -67 -140 -126 -189c-49 -43 -110 -71 -170 -71z" />
    <glyph glyph-name="guillemotleft" unicode="&#xab;" horiz-adv-x="558" 
d="M224 16c-52 48 -132 132 -169 165c-14 14 -19 20 -12 43c6 22 13 28 32 41c51 31 189 118 265 166l4 -4l-196 -205l82 -202zM439 16c-53 48 -133 132 -169 165c-16 14 -20 20 -13 43c6 22 13 28 33 41l264 166l5 -4l-197 -205l82 -202z" />
    <glyph glyph-name="guillemotright" unicode="&#xbb;" horiz-adv-x="558" 
d="M325 428l7 4c50 -47 135 -134 169 -167c14 -13 17 -19 12 -41c-7 -23 -14 -29 -34 -41c-54 -33 -186 -117 -265 -166l-4 4l198 205zM111 428l6 4c51 -47 136 -134 170 -167c13 -13 18 -19 12 -41c-7 -23 -13 -29 -35 -41l-263 -166l-4 4l197 205z" />
    <glyph glyph-name="nbspace" unicode="&#xa0;" horiz-adv-x="107" 
 />
    <glyph glyph-name="Agrave" unicode="&#xc0;" horiz-adv-x="671" 
d="M-105 0l2 5c14 1 41 8 63 18c30 15 62 47 93 86c132 160 325 405 463 585h24c2 -13 8 -616 8 -620c1 -28 2 -46 22 -56c15 -8 39 -12 58 -13l-2 -5h-319l2 5c31 2 69 7 85 15c24 10 31 32 30 51l-1 187h-231c-40 -50 -91 -119 -106 -139c-19 -26 -39 -54 -39 -70
c0 -31 70 -42 102 -44l-1 -5h-253zM203 273h220l-1 274c-24 -28 -147 -184 -219 -274zM565 719l-124 97c-27 21 -46 41 -46 66s21 46 47 46c33 0 45 -21 65 -64l63 -140z" />
    <glyph glyph-name="Atilde" unicode="&#xc3;" horiz-adv-x="671" 
d="M-105 0l2 5c14 1 41 8 63 18c30 15 62 47 93 86c132 160 325 405 463 585h24c2 -13 8 -616 8 -620c1 -28 2 -46 22 -56c15 -8 39 -12 58 -13l-2 -5h-319l2 5c31 2 69 7 85 15c24 10 31 32 30 51l-1 187h-231c-40 -50 -91 -119 -106 -139c-19 -26 -39 -54 -39 -70
c0 -31 70 -42 102 -44l-1 -5h-253zM203 273h220l-1 274c-24 -28 -147 -184 -219 -274zM344 744l-9 4c23 40 83 139 143 139c65 0 92 -65 142 -65c37 0 77 36 101 71l7 -3c-26 -49 -81 -142 -141 -142c-63 0 -95 65 -144 65c-36 0 -75 -34 -99 -69z" />
    <glyph glyph-name="Otilde" unicode="&#xd5;" horiz-adv-x="722" 
d="M307 -16c-150 0 -259 112 -259 274c0 94 32 187 85 262c75 106 190 178 316 178c148 0 263 -105 263 -269c0 -98 -34 -195 -91 -274c-73 -101 -185 -171 -314 -171zM307 -6c79 0 144 61 193 154c47 90 80 220 82 331c2 119 -29 209 -127 209c-66 0 -117 -39 -162 -102
c-65 -93 -113 -248 -116 -383c-2 -122 34 -209 130 -209zM299 744l-9 4c23 40 83 139 143 139c65 0 92 -65 142 -65c37 0 77 36 101 71l7 -3c-26 -49 -81 -142 -141 -142c-63 0 -95 65 -144 65c-36 0 -75 -34 -99 -69z" />
    <glyph glyph-name="OE" unicode="&#x152;" horiz-adv-x="1024" 
d="M328 10c55 0 122 19 141 87l135 492c21 72 -47 84 -129 84c-81 0 -141 -36 -187 -97c-71 -96 -110 -250 -112 -378c0 -108 46 -188 152 -188zM917 0h-596c-158 0 -274 82 -274 257c1 134 59 250 153 328c73 62 167 98 281 98h580l-46 -165h-8c-7 73 -37 145 -82 151
c-21 3 -55 4 -87 4h-85l-88 -312h81c45 0 77 20 94 36c19 17 46 57 61 94h8l-78 -280h-7c5 29 4 79 -9 106c-8 18 -28 34 -74 34h-78l-70 -250c-6 -20 -10 -39 -10 -50c0 -36 26 -41 106 -41c65 0 124 4 153 27c46 37 105 117 132 157h9z" />
    <glyph glyph-name="oe" unicode="&#x153;" horiz-adv-x="708" 
d="M482 -14c-50 0 -104 17 -134 72c-46 -46 -103 -72 -169 -72c-80 0 -158 59 -158 179c0 64 28 138 78 198s122 105 208 105c54 0 100 -25 127 -83c47 50 108 83 178 83c56 0 101 -28 101 -76c0 -96 -99 -155 -262 -173c-7 -37 -13 -81 -13 -115c0 -55 21 -92 65 -92
c75 0 136 64 175 138l9 -4c-60 -116 -133 -160 -205 -160zM185 -5c44 0 84 51 114 120c33 76 54 173 55 248c0 77 -27 96 -51 96c-44 0 -86 -51 -117 -121c-32 -73 -53 -167 -54 -245c-1 -74 25 -98 53 -98zM452 227c122 16 165 104 168 168c2 44 -11 63 -32 63
c-51 0 -109 -116 -136 -231z" />
    <glyph glyph-name="divide" unicode="&#xf7;" horiz-adv-x="562" 
d="M285 58c-31 0 -55 25 -55 56s24 55 55 55s56 -24 56 -55s-25 -56 -56 -56zM285 350c-31 0 -55 24 -55 54c0 32 24 56 55 56s56 -24 56 -56c0 -30 -25 -54 -56 -54zM523 239h-476v41h476v-41z" />
    <glyph glyph-name="e.ordn" horiz-adv-x="388" 
d="M212 276c-62 0 -127 32 -127 120c0 91 91 224 218 224c48 0 80 -20 80 -55c0 -70 -84 -113 -194 -129c-6 -22 -8 -49 -8 -72c0 -43 14 -69 49 -69c51 0 99 45 127 98l7 -4c-42 -82 -93 -113 -152 -113zM190 445c97 16 125 81 129 124c2 31 -9 43 -26 43
c-37 0 -84 -81 -103 -167z" />
    <glyph glyph-name="ydieresis" unicode="&#xff;" horiz-adv-x="543" 
d="M78 -239c-93 0 -119 52 -119 89c0 57 41 83 78 83c36 0 55 -27 55 -50c0 -35 -18 -49 -36 -55c-20 -8 -48 -2 -55 -17c2 -26 35 -40 73 -40c128 0 194 113 257 321l-3 1c-37 -57 -90 -106 -151 -106c-69 0 -114 52 -114 112c0 15 9 47 20 75l58 151c18 45 29 81 29 98
s-8 26 -22 26c-44 0 -84 -52 -117 -137l-9 4c35 88 71 151 146 151c56 0 100 -29 100 -85c0 -23 -7 -48 -17 -77l-64 -162c-12 -31 -25 -69 -25 -89c0 -23 12 -40 43 -40c46 0 91 43 130 109l104 330h113l-108 -346c-82 -262 -215 -346 -366 -346zM270 536
c-33 0 -62 28 -62 62c0 35 29 64 62 64c34 0 62 -29 62 -62c0 -35 -28 -64 -62 -64zM464 536c-33 0 -61 28 -61 62c0 35 28 64 61 64c35 0 62 -29 62 -62c0 -35 -28 -64 -62 -64z" />
    <glyph glyph-name="Ydieresis" unicode="&#x178;" horiz-adv-x="679" 
d="M117 0l2 6c17 1 56 4 71 9c26 9 37 32 41 49l64 261c9 35 10 94 10 127c0 98 -34 173 -115 173c-51 0 -99 -29 -125 -100l-8 3c35 103 104 167 191 167c112 0 168 -87 171 -195c1 -35 -2 -86 -9 -132h9c27 72 57 134 91 185c58 90 125 143 190 143c49 0 77 -34 77 -69
c0 -52 -33 -77 -68 -77c-42 0 -60 36 -60 61c0 22 10 43 26 57l-4 5c-46 -9 -94 -45 -152 -132c-30 -44 -75 -132 -96 -216l-65 -257c-5 -21 -2 -39 20 -49c10 -5 62 -12 81 -13l-2 -6h-340zM375 750c-33 0 -62 28 -62 62c0 35 29 64 62 64c34 0 62 -29 62 -62
c0 -35 -28 -64 -62 -64zM569 750c-33 0 -61 28 -61 62c0 35 28 64 61 64c35 0 62 -29 62 -62c0 -35 -28 -64 -62 -64z" />
    <glyph glyph-name="fraction" unicode="&#x2044;" horiz-adv-x="324" 
d="M-221 -204l-18 13l765 943l20 -13z" />
    <glyph glyph-name="Euro" unicode="&#x20ac;" horiz-adv-x="580" 
d="M294 -14c-146 0 -221 105 -205 254h-68l2 13h68c3 27 11 60 19 86h-62l2 13h65c56 150 194 268 352 268c102 0 155 -53 155 -111c0 -51 -31 -90 -76 -90c-29 0 -45 18 -45 41c0 43 47 52 57 91c4 28 -32 60 -95 60c-92 0 -173 -110 -221 -259h230l-3 -13h-231
c-8 -26 -16 -61 -20 -86h194l-1 -13h-195c-17 -117 2 -220 114 -220c81 0 146 49 206 127l7 -4c-57 -84 -138 -157 -249 -157z" />
    <glyph glyph-name="guilsinglleft" unicode="&#x2039;" horiz-adv-x="344" 
d="M224 16c-52 48 -132 132 -169 165c-14 14 -19 20 -12 43c6 22 13 28 32 41c51 31 189 118 265 166l4 -4l-196 -205l82 -202z" />
    <glyph glyph-name="guilsinglright" unicode="&#x203a;" horiz-adv-x="344" 
d="M111 428l6 4c51 -47 136 -134 170 -167c13 -13 18 -19 12 -41c-7 -23 -13 -29 -35 -41l-263 -166l-4 4l197 205z" />
    <glyph glyph-name="daggerdbl" unicode="&#x2021;" horiz-adv-x="418" 
d="M139 18c-24 7 -31 30 -24 54c10 34 46 61 58 82c-11 -5 -30 -10 -52 -4c-20 6 -29 16 -40 23c-11 -22 -31 -33 -49 -28c-19 6 -24 27 -19 45c6 21 25 34 49 28c37 -10 35 -52 61 -60c12 -3 22 14 32 34c11 21 53 107 70 150l7 -3c-6 -45 -13 -142 -15 -163s-2 -43 11 -47
c29 -7 48 29 82 20c26 -6 33 -28 27 -50c-6 -18 -26 -32 -44 -27c-19 6 -26 23 -24 47c-13 0 -26 -3 -46 3c-16 4 -35 20 -42 30c-2 -27 18 -64 9 -99c-7 -25 -26 -42 -51 -35zM240 369l-7 2c7 45 14 142 15 164c3 21 3 42 -10 46c-29 8 -47 -28 -81 -20
c-25 6 -34 28 -28 50c6 18 24 32 43 28c19 -6 27 -24 26 -48c12 0 25 3 44 -3c19 -5 36 -20 43 -30c1 27 -17 65 -9 99c7 25 26 42 50 35s32 -30 25 -53c-11 -34 -46 -61 -57 -83c10 5 30 9 50 4c20 -6 29 -16 40 -23c11 23 31 34 49 29c19 -6 25 -28 20 -46
c-6 -20 -26 -34 -50 -27c-35 11 -35 51 -60 59c-13 4 -22 -14 -32 -34c-11 -21 -54 -106 -71 -149z" />
    <glyph glyph-name="quotesinglbase" unicode="&#x201a;" horiz-adv-x="209" 
d="M-24 -141l-3 9c57 29 108 77 123 133h-34c-51 0 -69 28 -69 58c1 36 31 74 80 74c42 0 71 -33 70 -88c-2 -70 -66 -138 -167 -186z" />
    <glyph glyph-name="quotedblbase" unicode="&#x201e;" horiz-adv-x="398" 
d="M-24 -141l-3 9c57 29 108 77 123 133h-34c-51 0 -69 28 -69 58c1 36 31 74 80 74c42 0 71 -33 70 -88c-2 -70 -66 -138 -167 -186zM165 -141l-4 9c58 29 109 77 124 133h-34c-52 0 -70 28 -69 58c0 36 31 74 80 74c42 0 71 -33 70 -88c-2 -70 -65 -138 -167 -186z" />
    <glyph glyph-name="perthousand" unicode="&#x2030;" horiz-adv-x="1227" 
d="M203 288c-80 0 -136 49 -136 127c2 108 98 204 208 204c82 0 145 -47 144 -129c-2 -117 -112 -202 -216 -202zM206 298c72 0 128 141 126 235c0 43 -18 78 -56 78c-80 0 -122 -150 -123 -227c-2 -45 9 -86 53 -86zM101 -97l-14 11l644 774l13 -11zM563 -13
c-80 0 -137 48 -136 127c1 108 98 204 207 204c82 0 146 -48 145 -129c-2 -117 -112 -202 -216 -202zM565 -4c72 0 129 141 127 234c-1 44 -20 79 -56 79c-81 0 -123 -149 -124 -226c0 -45 10 -87 53 -87zM962 -16c-80 0 -137 50 -136 128c2 108 98 205 208 205
c81 0 146 -48 145 -130c-2 -118 -113 -203 -217 -203zM965 -5c72 0 128 141 126 234c0 44 -19 78 -56 78c-81 0 -123 -149 -123 -226c-1 -45 9 -86 53 -86z" />
    <glyph glyph-name="Acircumflex" unicode="&#xc2;" horiz-adv-x="671" 
d="M-105 0l2 5c14 1 41 8 63 18c30 15 62 47 93 86c132 160 325 405 463 585h24c2 -13 8 -616 8 -620c1 -28 2 -46 22 -56c15 -8 39 -12 58 -13l-2 -5h-319l2 5c31 2 69 7 85 15c24 10 31 32 30 51l-1 187h-231c-40 -50 -91 -119 -106 -139c-19 -26 -39 -54 -39 -70
c0 -31 70 -42 102 -44l-1 -5h-253zM203 273h220l-1 274c-24 -28 -147 -184 -219 -274zM661 712l-115 121l-183 -121l-6 5c52 58 115 132 151 174c17 21 24 23 56 23c27 0 32 -3 39 -21c14 -37 45 -126 64 -178z" />
    <glyph glyph-name="Ecircumflex" unicode="&#xca;" horiz-adv-x="641" 
d="M590 723l-115 121l-183 -121l-6 5c52 58 115 132 151 174c17 21 24 23 56 23c27 0 32 -3 39 -21c14 -37 45 -126 64 -178zM-48 0l2 6c15 0 61 4 78 10c25 9 37 28 43 51l151 543c5 21 8 42 -15 53c-16 6 -53 13 -71 14l2 6h536l-46 -165h-8c-7 73 -37 145 -81 151
c-21 3 -56 4 -88 4h-85l-87 -312h79c47 0 78 20 96 36c19 17 45 57 60 94h8l-78 -280h-6c4 29 4 79 -9 106c-9 18 -28 34 -75 34h-78l-69 -250c-24 -86 -4 -91 95 -91c66 0 124 4 153 27c46 37 106 117 133 157h8l-65 -194h-583z" />
    <glyph glyph-name="Aacute" unicode="&#xc1;" horiz-adv-x="671" 
d="M-105 0l2 5c14 1 41 8 63 18c30 15 62 47 93 86c132 160 325 405 463 585h24c2 -13 8 -616 8 -620c1 -28 2 -46 22 -56c15 -8 39 -12 58 -13l-2 -5h-319l2 5c31 2 69 7 85 15c24 10 31 32 30 51l-1 187h-231c-40 -50 -91 -119 -106 -139c-19 -26 -39 -54 -39 -70
c0 -31 70 -42 102 -44l-1 -5h-253zM203 273h220l-1 274c-24 -28 -147 -184 -219 -274zM619 818l-176 -97l-4 5l117 149c26 34 48 52 79 52c25 0 42 -20 42 -39c0 -31 -19 -49 -58 -70z" />
    <glyph glyph-name="Edieresis" unicode="&#xcb;" horiz-adv-x="641" 
d="M-48 0l2 6c15 0 61 4 78 10c25 9 37 28 43 51l151 543c5 21 8 42 -15 53c-16 6 -53 13 -71 14l2 6h536l-46 -165h-8c-7 73 -37 145 -81 151c-21 3 -56 4 -88 4h-85l-87 -312h79c47 0 78 20 96 36c19 17 45 57 60 94h8l-78 -280h-6c4 29 4 79 -9 106c-9 18 -28 34 -75 34
h-78l-69 -250c-24 -86 -4 -91 95 -91c66 0 124 4 153 27c46 37 106 117 133 157h8l-65 -194h-583zM357 755c-33 0 -62 28 -62 62c0 35 29 64 62 64c34 0 62 -29 62 -62c0 -35 -28 -64 -62 -64zM551 755c-33 0 -61 28 -61 62c0 35 28 64 61 64c35 0 62 -29 62 -62
c0 -35 -28 -64 -62 -64z" />
    <glyph glyph-name="Egrave" unicode="&#xc8;" horiz-adv-x="641" 
d="M-48 0l2 6c15 0 61 4 78 10c25 9 37 28 43 51l151 543c5 21 8 42 -15 53c-16 6 -53 13 -71 14l2 6h536l-46 -165h-8c-7 73 -37 145 -81 151c-21 3 -56 4 -88 4h-85l-87 -312h79c47 0 78 20 96 36c19 17 45 57 60 94h8l-78 -280h-6c4 29 4 79 -9 106c-9 18 -28 34 -75 34
h-78l-69 -250c-24 -86 -4 -91 95 -91c66 0 124 4 153 27c46 37 106 117 133 157h8l-65 -194h-583zM531 719l-124 97c-27 21 -46 41 -46 66s21 46 47 46c33 0 45 -21 65 -64l63 -140z" />
    <glyph glyph-name="Iacute" unicode="&#xcd;" horiz-adv-x="397" 
d="M-39 0l1 6c18 1 59 5 74 9c26 9 37 28 43 49l153 549c5 20 6 39 -17 50c-14 6 -51 13 -67 14l2 6h330l-2 -6c-19 -1 -56 -6 -75 -11c-26 -8 -38 -29 -44 -50l-153 -550c-6 -21 -4 -38 18 -48c10 -4 49 -11 69 -12l-1 -6h-331zM418 818l-176 -97l-4 5l117 149
c26 34 48 52 79 52c25 0 42 -20 42 -39c0 -31 -19 -49 -58 -70z" />
    <glyph glyph-name="Icircumflex" unicode="&#xce;" horiz-adv-x="397" 
d="M-39 0l1 6c18 1 59 5 74 9c26 9 37 28 43 49l153 549c5 20 6 39 -17 50c-14 6 -51 13 -67 14l2 6h330l-2 -6c-19 -1 -56 -6 -75 -11c-26 -8 -38 -29 -44 -50l-153 -550c-6 -21 -4 -38 18 -48c10 -4 49 -11 69 -12l-1 -6h-331zM464 723l-115 121l-183 -121l-6 5
c52 58 115 132 151 174c17 21 24 23 56 23c27 0 32 -3 39 -21c14 -37 45 -126 64 -178z" />
    <glyph glyph-name="Idieresis" unicode="&#xcf;" horiz-adv-x="397" 
d="M-39 0l1 6c18 1 59 5 74 9c26 9 37 28 43 49l153 549c5 20 6 39 -17 50c-14 6 -51 13 -67 14l2 6h330l-2 -6c-19 -1 -56 -6 -75 -11c-26 -8 -38 -29 -44 -50l-153 -550c-6 -21 -4 -38 18 -48c10 -4 49 -11 69 -12l-1 -6h-331zM237 755c-33 0 -62 28 -62 62
c0 35 29 64 62 64c34 0 62 -29 62 -62c0 -35 -28 -64 -62 -64zM431 755c-33 0 -61 28 -61 62c0 35 28 64 61 64c35 0 62 -29 62 -62c0 -35 -28 -64 -62 -64z" />
    <glyph glyph-name="Igrave" unicode="&#xcc;" horiz-adv-x="397" 
d="M-39 0l1 6c18 1 59 5 74 9c26 9 37 28 43 49l153 549c5 20 6 39 -17 50c-14 6 -51 13 -67 14l2 6h330l-2 -6c-19 -1 -56 -6 -75 -11c-26 -8 -38 -29 -44 -50l-153 -550c-6 -21 -4 -38 18 -48c10 -4 49 -11 69 -12l-1 -6h-331zM387 719l-124 97c-27 21 -46 41 -46 66
s21 46 47 46c33 0 45 -21 65 -64l63 -140z" />
    <glyph glyph-name="Oacute" unicode="&#xd3;" horiz-adv-x="722" 
d="M572 818l-176 -97l-4 5l117 149c26 34 48 52 79 52c25 0 42 -20 42 -39c0 -31 -19 -49 -58 -70zM307 -16c-150 0 -259 112 -259 274c0 94 32 187 85 262c75 106 190 178 316 178c148 0 263 -105 263 -269c0 -98 -34 -195 -91 -274c-73 -101 -185 -171 -314 -171zM307 -6
c79 0 144 61 193 154c47 90 80 220 82 331c2 119 -29 209 -127 209c-66 0 -117 -39 -162 -102c-65 -93 -113 -248 -116 -383c-2 -122 34 -209 130 -209z" />
    <glyph glyph-name="Ocircumflex" unicode="&#xd4;" horiz-adv-x="722" 
d="M606 723l-115 121l-183 -121l-6 5c52 58 115 132 151 174c17 21 24 23 56 23c27 0 32 -3 39 -21c14 -37 45 -126 64 -178zM307 -16c-150 0 -259 112 -259 274c0 94 32 187 85 262c75 106 190 178 316 178c148 0 263 -105 263 -269c0 -98 -34 -195 -91 -274
c-73 -101 -185 -171 -314 -171zM307 -6c79 0 144 61 193 154c47 90 80 220 82 331c2 119 -29 209 -127 209c-66 0 -117 -39 -162 -102c-65 -93 -113 -248 -116 -383c-2 -122 34 -209 130 -209z" />
    <glyph glyph-name="apple" unicode="&#xf8ff;" horiz-adv-x="617" 
d="M383 -2c-40 0 -75 32 -75 75c0 31 18 53 18 94v11l-7 5c-7 -1 -13 -1 -20 -1c-21 0 -40 7 -56 18l-13 -1c-14 -21 -18 -42 -21 -61c-7 -43 -28 -83 -78 -83c-40 0 -77 33 -77 77c0 43 36 75 83 75c17 0 45 -2 74 13l3 14c-6 13 -10 28 -10 43c0 9 1 17 3 25l-5 13
c-9 3 -18 3 -27 3c-28 0 -44 -7 -64 -7c-44 0 -77 35 -77 76s33 77 76 77c36 0 56 -21 67 -42c11 -23 14 -56 38 -81l15 1c18 19 43 30 69 30l11 7c0 53 -34 73 -34 114c0 44 35 73 76 73c44 0 74 -35 74 -76c0 -64 -58 -59 -88 -116l4 -12c23 -12 41 -32 48 -58l12 -6
c55 20 60 70 118 70c40 0 73 -34 73 -77c0 -42 -33 -74 -75 -74c-47 0 -61 41 -116 50l-9 -8c-4 -24 -19 -45 -39 -60l-1 -10c16 -21 35 -30 53 -39c30 -14 55 -38 55 -76c0 -40 -35 -76 -78 -76zM299 208c39 0 67 31 67 70c0 38 -28 68 -67 68c-38 0 -67 -30 -67 -68
c0 -39 29 -70 67 -70z" />
    <glyph glyph-name="Ograve" unicode="&#xd2;" horiz-adv-x="722" 
d="M307 -16c-150 0 -259 112 -259 274c0 94 32 187 85 262c75 106 190 178 316 178c148 0 263 -105 263 -269c0 -98 -34 -195 -91 -274c-73 -101 -185 -171 -314 -171zM307 -6c79 0 144 61 193 154c47 90 80 220 82 331c2 119 -29 209 -127 209c-66 0 -117 -39 -162 -102
c-65 -93 -113 -248 -116 -383c-2 -122 34 -209 130 -209zM529 719l-124 97c-27 21 -46 41 -46 66s21 46 47 46c33 0 45 -21 65 -64l63 -140z" />
    <glyph glyph-name="Uacute" unicode="&#xda;" horiz-adv-x="770" 
d="M623 818l-176 -97l-4 5l117 149c26 34 48 52 79 52c25 0 42 -20 42 -39c0 -31 -19 -49 -58 -70zM336 -16c-151 0 -235 60 -235 161c0 27 4 57 14 91l103 375c6 21 6 40 -16 51c-14 6 -51 14 -67 15l2 6h332l-2 -6c-19 -1 -58 -6 -77 -11c-26 -8 -38 -30 -44 -51
l-100 -360c-11 -42 -18 -81 -18 -113c0 -70 48 -122 142 -122c125 0 205 71 245 215l80 283c10 32 31 112 3 134c-17 14 -73 24 -95 25l2 6h274l-2 -6c-18 -1 -75 -7 -97 -20c-33 -19 -51 -70 -69 -134l-83 -293c-47 -162 -126 -246 -292 -246z" />
    <glyph glyph-name="Ucircumflex" unicode="&#xdb;" horiz-adv-x="770" 
d="M667 723l-115 121l-183 -121l-6 5c52 58 115 132 151 174c17 21 24 23 56 23c27 0 32 -3 39 -21c14 -37 45 -126 64 -178zM336 -16c-151 0 -235 60 -235 161c0 27 4 57 14 91l103 375c6 21 6 40 -16 51c-14 6 -51 14 -67 15l2 6h332l-2 -6c-19 -1 -58 -6 -77 -11
c-26 -8 -38 -30 -44 -51l-100 -360c-11 -42 -18 -81 -18 -113c0 -70 48 -122 142 -122c125 0 205 71 245 215l80 283c10 32 31 112 3 134c-17 14 -73 24 -95 25l2 6h274l-2 -6c-18 -1 -75 -7 -97 -20c-33 -19 -51 -70 -69 -134l-83 -293c-47 -162 -126 -246 -292 -246z" />
    <glyph glyph-name="Ugrave" unicode="&#xd9;" horiz-adv-x="770" 
d="M336 -16c-151 0 -235 60 -235 161c0 27 4 57 14 91l103 375c6 21 6 40 -16 51c-14 6 -51 14 -67 15l2 6h332l-2 -6c-19 -1 -58 -6 -77 -11c-26 -8 -38 -30 -44 -51l-100 -360c-11 -42 -18 -81 -18 -113c0 -70 48 -122 142 -122c125 0 205 71 245 215l80 283
c10 32 31 112 3 134c-17 14 -73 24 -95 25l2 6h274l-2 -6c-18 -1 -75 -7 -97 -20c-33 -19 -51 -70 -69 -134l-83 -293c-47 -162 -126 -246 -292 -246zM594 719l-124 97c-27 21 -46 41 -46 66s21 46 47 46c33 0 45 -21 65 -64l63 -140z" />
    <glyph glyph-name="dotlessi" unicode="&#x131;" horiz-adv-x="330" 
d="M163 -11c-54 0 -106 23 -106 84c0 24 5 42 18 77l70 177c18 48 27 79 27 98c0 17 -8 24 -22 24c-45 0 -85 -51 -118 -136l-10 3c36 88 73 152 146 152c56 0 102 -32 102 -91c0 -22 -16 -66 -27 -95l-59 -152c-20 -51 -30 -82 -30 -98c0 -17 11 -24 27 -24
c45 0 87 50 120 135l9 -3c-35 -89 -74 -151 -147 -151z" />
    <glyph glyph-name="R.salt" horiz-adv-x="721" 
d="M421 351v-5c83 -8 128 -47 141 -124c8 -42 14 -100 18 -137c3 -44 18 -65 45 -71c19 -4 39 -7 57 -8l-1 -6h-231c-1 125 -4 226 -33 284c-17 36 -45 57 -96 57h-43c-26 -96 -66 -235 -77 -273c-5 -21 -4 -38 18 -48c11 -5 52 -13 71 -14l-1 -6h-333l2 6c18 1 58 5 73 9
c26 9 37 28 43 49l152 549c6 20 7 39 -16 50c-14 6 -51 13 -67 14l2 6h306c139 0 217 -48 216 -139c-2 -109 -104 -173 -246 -193zM281 352h46c116 0 200 63 205 180c4 93 -40 140 -113 140h-49z" />
    <glyph glyph-name="currency" unicode="&#xa4;" horiz-adv-x="580" 
d="M294 -14c-146 0 -221 105 -205 254h-68l2 13h68c3 27 11 60 19 86h-62l2 13h65c56 150 194 268 352 268c102 0 155 -53 155 -111c0 -51 -31 -90 -76 -90c-29 0 -45 18 -45 41c0 43 47 52 57 91c4 28 -32 60 -95 60c-92 0 -173 -110 -221 -259h230l-3 -13h-231
c-8 -26 -16 -61 -20 -86h194l-1 -13h-195c-17 -117 2 -220 114 -220c81 0 146 49 206 127l7 -4c-57 -84 -138 -157 -249 -157z" />
    <glyph glyph-name="space" unicode=" " horiz-adv-x="213" 
 />
    <glyph glyph-name="fi" horiz-adv-x="569" 
d="M-128 -236c-70 0 -102 39 -102 85c0 27 22 61 61 61c25 0 63 -15 63 -56c0 -27 -31 -49 -42 -65c1 -10 11 -17 17 -17c74 0 103 58 151 220c48 160 91 338 118 443h-93l5 16h93l10 34c23 80 61 147 125 202c50 43 106 56 154 56c84 0 134 -47 134 -97
c0 -25 -21 -65 -65 -65c-32 0 -69 14 -69 57c0 23 30 62 32 80c-5 12 -26 16 -43 16c-60 0 -109 -71 -150 -219l-18 -64h150c19 5 42 10 66 10c43 0 55 -32 47 -67c-7 -31 -20 -70 -37 -114l-58 -152c-17 -44 -29 -76 -29 -91c0 -24 13 -29 29 -29c45 0 88 50 121 135l9 -3
c-35 -89 -76 -151 -146 -151c-50 0 -111 22 -111 83c0 24 6 43 19 78l66 175c11 30 20 61 25 88c2 11 4 22 -13 22h-141c-32 -123 -76 -300 -110 -409c-25 -78 -62 -152 -118 -202c-46 -41 -100 -60 -150 -60z" />
    <glyph glyph-name="fl" horiz-adv-x="581" 
d="M464 718c-5 14 -33 16 -45 16c-58 0 -108 -75 -148 -219l-18 -64h116l-6 -16h-113c-32 -123 -76 -300 -110 -409c-25 -78 -62 -152 -118 -202c-46 -41 -100 -60 -150 -60c-70 0 -102 39 -102 85c0 27 22 61 61 61c25 0 63 -15 63 -56c0 -27 -31 -49 -42 -65
c1 -10 11 -17 17 -17c74 0 103 58 151 220c49 161 91 338 118 443h-93l5 16h93l10 35c22 74 57 142 120 197c48 43 105 60 152 60c37 0 70 -11 89 -27l119 24l-196 -614c-16 -49 -26 -79 -26 -97c0 -16 10 -23 27 -23c46 0 86 52 120 137l10 -3c-37 -90 -75 -151 -149 -151
c-52 0 -105 22 -105 83c0 24 9 48 18 78l138 436c-20 6 -38 22 -38 52c0 23 30 62 32 80z" />
    <glyph glyph-name="J.salt" horiz-adv-x="548" 
d="M261 187l119 426c5 22 7 40 -17 50c-14 6 -51 12 -70 14l2 6h335l-2 -6c-18 -1 -59 -6 -77 -11c-26 -8 -38 -28 -44 -50l-117 -417c-34 -121 -113 -216 -269 -216c-107 0 -139 52 -136 100c3 41 33 69 73 69c37 0 62 -26 60 -62c-2 -35 -28 -59 -60 -75
c17 -19 48 -21 52 -21c89 0 117 70 151 193z" />
    <glyph glyph-name="Q.salt" horiz-adv-x="722" 
d="M307 -16c-150 0 -259 111 -259 274c0 124 52 240 137 323c73 71 170 117 264 117c151 0 263 -114 263 -269c0 -116 -43 -225 -122 -312c-33 -37 -73 -69 -119 -92c25 -84 66 -115 112 -115c51 0 83 30 114 83l8 -3c-33 -78 -80 -149 -178 -149c-82 0 -131 58 -152 150
c-22 -4 -45 -7 -68 -7zM194 75c40 55 83 95 142 95c53 0 101 -31 120 -91c16 19 31 44 44 69c47 90 80 220 82 331c2 119 -29 209 -127 209c-66 0 -117 -39 -162 -102c-65 -93 -113 -248 -116 -383c-1 -50 4 -93 17 -128zM307 -6c22 0 44 5 64 14c-13 63 -33 111 -79 111
c-30 0 -61 -14 -94 -53c20 -45 55 -72 109 -72z" />
    <glyph glyph-name="Y.salt" horiz-adv-x="629" 
d="M61 0l2 6c28 2 64 4 77 8c26 8 38 27 44 49l47 171c9 36 9 48 3 75c-19 82 -45 191 -61 249c-14 52 -25 87 -51 104c-14 10 -30 12 -49 14l2 7h325l-2 -7c-36 -2 -105 -6 -110 -25c-2 -7 7 -51 18 -100c9 -43 39 -171 61 -249c36 42 157 184 194 229c53 65 78 100 81 110
c8 27 -66 32 -110 35l2 7h236l-2 -7c-25 -3 -36 -5 -56 -15c-32 -17 -52 -44 -80 -74c-73 -82 -173 -201 -225 -261c-34 -38 -37 -44 -54 -106l-43 -157c-6 -22 -2 -38 20 -46c15 -6 48 -9 71 -11l-2 -6h-338z" />
    <glyph glyph-name="ampersand.salt" horiz-adv-x="701" 
d="M287 -239l-4 30c118 -12 174 20 174 127c0 48 -28 111 -66 179c-58 -72 -123 -111 -211 -111c-92 0 -172 46 -173 144c-1 119 104 193 234 241c-18 40 -31 86 -31 123c0 125 102 203 217 203c66 0 114 -41 115 -101c0 -98 -100 -152 -189 -188c30 -69 76 -142 112 -208
c40 89 93 207 166 207c52 0 72 -36 72 -65c0 -22 -13 -47 -40 -47c-51 0 -34 47 -73 47s-72 -63 -119 -153c34 -62 64 -130 64 -183c0 -148 -105 -238 -248 -245zM237 36c57 0 112 24 149 70c-48 85 -110 188 -141 257c-74 -46 -120 -115 -120 -196c0 -79 46 -131 112 -131z
M350 417c88 40 151 100 149 182c-1 44 -25 89 -73 89c-67 0 -107 -76 -107 -142c-1 -39 12 -85 31 -129z" />
    <glyph glyph-name="copyrightsound" unicode="&#x2117;" horiz-adv-x="943" 
d="M273 25v5c16 1 51 7 60 10c18 6 23 18 23 30v360c0 12 -5 26 -23 31c-19 5 -47 11 -63 12v5h260c94 0 154 -42 154 -110c0 -92 -80 -143 -184 -143h-51v-155c0 -12 5 -25 21 -30c9 -3 52 -9 73 -10v-5h-270zM449 233h28c81 0 102 74 102 118c0 52 -23 119 -89 119h-41
v-237zM469 -181c-236 0 -434 194 -434 432c0 236 197 430 434 430c233 0 431 -194 431 -430c0 -238 -198 -432 -431 -432zM469 -151c216 0 396 179 396 402c0 220 -180 400 -396 400c-218 0 -400 -180 -400 -400c0 -223 182 -402 400 -402z" />
    <glyph glyph-name="NUL" horiz-adv-x="0" 
 />
    <glyph glyph-name="NUL" horiz-adv-x="0" 
 />
    <glyph glyph-name="DEL" horiz-adv-x="0" 
 />
    <glyph glyph-name="notequal" unicode="&#x2260;" horiz-adv-x="562" 
d="M509 451l-86 -86h90v-41h-131l-128 -128h259v-41h-300l-115 -116l-27 27l89 89h-89v41h130l127 128h-257v41h298l113 113z" />
    <glyph glyph-name="plusminus" unicode="&#xb1;" horiz-adv-x="563" 
d="M240 69v214h-219v44h219v214h45v-214h218v-44h-218v-214h-45zM24 0v41h476v-41h-476z" />
    <glyph glyph-name="infinity" unicode="&#x221e;" horiz-adv-x="531" 
d="M118 158c-58 0 -108 44 -108 102c0 60 48 104 111 104c52 0 90 -35 128 -77c41 43 75 77 130 77c61 0 105 -41 105 -102c0 -63 -54 -104 -109 -104c-40 0 -80 26 -128 75c-37 -39 -78 -75 -129 -75zM121 193c39 0 69 32 104 66c-34 39 -64 70 -106 70
c-45 0 -70 -30 -70 -69c0 -38 29 -67 72 -67zM376 193c45 0 71 37 71 67c0 44 -31 69 -72 69c-32 0 -58 -23 -104 -68c45 -48 67 -68 105 -68z" />
    <glyph glyph-name="summation" unicode="&#x2211;" horiz-adv-x="640" 
d="M-111 -64l2 6c18 3 30 17 57 47l296 329l-118 256c-11 21 -19 35 -37 40l2 6h560l-45 -190h-7c-12 57 -43 159 -86 171c-19 5 -45 7 -85 7h-176l140 -301l-326 -359h163c84 0 137 6 162 27c51 43 121 124 160 176h8l-76 -215h-594z" />
    <glyph glyph-name="pi" unicode="&#x3c0;" horiz-adv-x="626" 
d="M405 -11c-63 0 -111 25 -111 83c0 24 7 45 19 78l107 302h-130c-39 -108 -99 -237 -147 -326c-29 -53 -53 -92 -65 -104c-17 -16 -39 -26 -66 -26c-31 0 -46 14 -20 46c27 35 59 67 96 116c45 60 98 145 155 294h-16c-13 0 -33 -1 -44 -4c-34 -9 -111 -98 -134 -131h-7
l49 144h566l-3 -7s-61 -2 -108 -2l-109 -314c-17 -48 -28 -82 -28 -97c0 -19 14 -27 30 -27c43 0 81 44 115 129l9 -3c-36 -90 -76 -151 -158 -151z" />
    <glyph glyph-name="partialdiff" unicode="&#x2202;" horiz-adv-x="515" 
d="M174 -14c-87 0 -172 65 -172 185c0 69 34 147 91 206c53 55 126 94 208 94c44 0 68 -16 84 -43l4 1c3 17 6 58 3 101c-5 71 -34 126 -112 126c-50 0 -85 -21 -108 -55h-8c25 47 68 81 143 81c100 0 174 -60 186 -186c5 -75 3 -160 -16 -238c-16 -66 -43 -127 -88 -173
c-53 -58 -127 -99 -215 -99zM180 -6c45 0 84 49 114 114c34 76 56 178 57 253c0 81 -28 102 -54 102c-48 0 -93 -60 -125 -138c-29 -70 -48 -156 -49 -227c0 -77 27 -104 57 -104z" />
    <glyph glyph-name="Delta" unicode="&#x2206;" horiz-adv-x="631" 
d="M-137 0l3 6c15 1 40 6 60 16c29 15 58 49 82 83c95 125 329 451 433 589h35c2 -71 13 -604 14 -625c1 -24 3 -40 21 -51c12 -8 35 -11 52 -12l-2 -6h-698zM76 11h216c19 0 44 4 53 15c17 11 21 38 20 62l-2 477c-3 -2 -250 -340 -318 -440c-21 -31 -43 -64 -39 -83
c4 -25 38 -31 70 -31z" />
    <glyph glyph-name="Omega" unicode="&#x2126;" horiz-adv-x="755" 
d="M-51 0l22 191l6 1c0 -43 3 -90 46 -90h160c-84 59 -156 153 -128 288c36 169 204 309 388 309c172 0 290 -126 261 -310c-23 -141 -138 -230 -243 -287h149c43 0 73 47 97 90l7 -1l-80 -191h-252l-1 44c91 65 152 175 179 349c19 130 11 296 -120 296
s-207 -158 -243 -301c-41 -159 -31 -267 30 -344l-18 -44h-260z" />
    <glyph glyph-name="approxequal" unicode="&#x2248;" horiz-adv-x="563" 
d="M38 146c12 36 60 72 131 72c100 0 162 -25 242 -25c42 0 64 13 82 36h6c-16 -37 -52 -74 -127 -74c-104 0 -155 23 -238 23c-41 0 -72 -10 -89 -32h-7zM38 303c12 36 60 72 131 72c100 0 162 -25 242 -25c42 0 64 13 82 36h6c-16 -37 -52 -74 -127 -74
c-104 0 -155 23 -238 23c-41 0 -72 -10 -89 -32h-7z" />
    <glyph glyph-name="radical" unicode="&#x221a;" horiz-adv-x="591" 
d="M252 -49l-163 383l-68 -31l-2 9l178 81l141 -344h2l270 621l10 -2l-306 -705z" />
    <glyph glyph-name="integral" unicode="&#x222b;" horiz-adv-x="512" 
d="M-95 -194c-51 0 -103 24 -103 82c0 33 25 61 58 61c36 0 60 -20 60 -59c0 -28 -23 -52 -41 -62c5 -9 17 -14 30 -14c68 0 113 72 155 225c32 117 50 211 70 297c25 104 56 173 117 227c45 39 98 61 167 61c65 0 121 -32 121 -85c0 -31 -17 -61 -55 -61
c-33 0 -61 17 -61 54c0 22 18 50 36 69c-5 7 -24 15 -43 15c-69 0 -110 -76 -142 -220c-37 -167 -58 -255 -79 -329c-22 -78 -59 -141 -117 -191c-48 -42 -109 -70 -173 -70z" />
    <glyph glyph-name="product" unicode="&#x220f;" horiz-adv-x="829" 
d="M-95 -64l2 6c22 1 63 5 78 9c25 9 36 26 42 48l154 552c5 22 6 40 -17 50c-14 5 -51 12 -71 13l1 6h776l-1 -6c-21 -1 -60 -6 -78 -10c-27 -7 -38 -28 -44 -50l-154 -551c-5 -23 -6 -39 17 -49c11 -5 51 -11 72 -12l-1 -6h-341l2 6c17 1 57 5 72 9c26 8 37 26 43 48
l154 553c11 45 -23 60 -65 60h-135c-40 0 -81 -11 -94 -57l-153 -553c-7 -22 -5 -39 17 -48c10 -5 45 -11 66 -12l-1 -6h-341z" />
    <glyph glyph-name="lozenge" unicode="&#x25ca;" horiz-adv-x="483" 
d="M136 0l-99 305l240 304h58l102 -304l-243 -305h-58zM177 61l190 245l-73 236l-191 -240z" />
    </font>
</defs>
</svg>
